<svg xmlns="http://www.w3.org/2000/svg" viewBox="0 0 507.79 239.73"><defs><style>.cls-1{fill:#f1f1e7;}.cls-2{fill:#69c9ee;}.cls-3{fill:#6d6e70;}.cls-4{fill:#f1f3e5;}.cls-5{fill:#929497;}.cls-6{fill:#808184;}.cls-7{fill:#f4f5ed;}.cls-8{fill:#32bce5;}</style></defs><g id="Layer_2" data-name="Layer 2"><g id="Layer_1-2" data-name="Layer 1"><rect class="cls-1" x="53.99" y="112.48" width="399.81" height="58.39" rx="9.03"/><path class="cls-2" d="M305,122.07a1.16,1.16,0,0,0-1.15,1.15v8.06a1.16,1.16,0,0,0,2.31,0v-8.06A1.16,1.16,0,0,0,305,122.07Z"/><path class="cls-2" d="M308.24,122.07a1.16,1.16,0,0,0-1.16,1.15v8.06a1.16,1.16,0,0,0,2.32,0v-8.06A1.16,1.16,0,0,0,308.24,122.07Z"/><path class="cls-2" d="M311.45,122.07a1.16,1.16,0,0,0-1.16,1.15v8.06a1.16,1.16,0,0,0,2.31,0v-8.06A1.15,1.15,0,0,0,311.45,122.07Z"/><path class="cls-2" d="M314.65,122.07a1.16,1.16,0,0,0-1.16,1.15v8.06a1.16,1.16,0,0,0,2.32,0v-8.06A1.16,1.16,0,0,0,314.65,122.07Z"/><path class="cls-2" d="M320.23,122.07a1.15,1.15,0,0,0-1.15,1.15v8.06a1.16,1.16,0,0,0,2.31,0v-8.06A1.16,1.16,0,0,0,320.23,122.07Z"/><rect class="cls-2" x="322.28" y="122.07" width="2.32" height="10.37" rx="1.16"/><path class="cls-2" d="M326.64,122.07a1.16,1.16,0,0,0-1.15,1.15v8.06a1.16,1.16,0,0,0,2.31,0v-8.06A1.16,1.16,0,0,0,326.64,122.07Z"/><path class="cls-2" d="M329.85,122.07a1.16,1.16,0,0,0-1.16,1.15v8.06a1.16,1.16,0,0,0,2.32,0v-8.06A1.16,1.16,0,0,0,329.85,122.07Z"/><path class="cls-2" d="M335.43,122.07a1.16,1.16,0,0,0-1.16,1.15v8.06a1.16,1.16,0,0,0,2.32,0v-8.06A1.16,1.16,0,0,0,335.43,122.07Z"/><path class="cls-2" d="M338.64,122.07a1.16,1.16,0,0,0-1.16,1.15v8.06a1.16,1.16,0,0,0,2.32,0v-8.06A1.16,1.16,0,0,0,338.64,122.07Z"/><path class="cls-2" d="M341.84,122.07a1.15,1.15,0,0,0-1.15,1.15v8.06a1.16,1.16,0,0,0,2.31,0v-8.06A1.16,1.16,0,0,0,341.84,122.07Z"/><path class="cls-2" d="M345.05,122.07a1.16,1.16,0,0,0-1.16,1.15v8.06a1.16,1.16,0,0,0,2.32,0v-8.06A1.16,1.16,0,0,0,345.05,122.07Z"/><path class="cls-2" d="M350.63,122.07a1.16,1.16,0,0,0-1.16,1.15v8.06a1.16,1.16,0,0,0,2.32,0v-8.06A1.16,1.16,0,0,0,350.63,122.07Z"/><path class="cls-2" d="M353.84,122.07a1.16,1.16,0,0,0-1.16,1.15v8.06a1.16,1.16,0,0,0,2.31,0v-8.06A1.15,1.15,0,0,0,353.84,122.07Z"/><path class="cls-2" d="M357,122.07a1.16,1.16,0,0,0-1.16,1.15v8.06a1.16,1.16,0,0,0,2.32,0v-8.06A1.16,1.16,0,0,0,357,122.07Z"/><path class="cls-2" d="M360.25,122.07a1.16,1.16,0,0,0-1.16,1.15v8.06a1.16,1.16,0,0,0,2.32,0v-8.06A1.16,1.16,0,0,0,360.25,122.07Z"/><rect class="cls-2" x="364.67" y="122.07" width="2.32" height="10.37" rx="1.16"/><path class="cls-2" d="M369,122.07a1.16,1.16,0,0,0-1.15,1.15v8.06a1.16,1.16,0,0,0,2.31,0v-8.06A1.16,1.16,0,0,0,369,122.07Z"/><path class="cls-2" d="M372.24,122.07a1.16,1.16,0,0,0-1.16,1.15v8.06a1.16,1.16,0,0,0,2.32,0v-8.06A1.16,1.16,0,0,0,372.24,122.07Z"/><path class="cls-2" d="M375.45,122.07a1.16,1.16,0,0,0-1.16,1.15v8.06a1.16,1.16,0,0,0,2.31,0v-8.06A1.15,1.15,0,0,0,375.45,122.07Z"/><path class="cls-2" d="M381,122.07a1.16,1.16,0,0,0-1.16,1.15v8.06a1.16,1.16,0,0,0,2.31,0v-8.06A1.15,1.15,0,0,0,381,122.07Z"/><path class="cls-2" d="M384.23,122.07a1.15,1.15,0,0,0-1.15,1.15v8.06a1.16,1.16,0,0,0,2.31,0v-8.06A1.16,1.16,0,0,0,384.23,122.07Z"/><path class="cls-2" d="M387.44,122.07a1.16,1.16,0,0,0-1.16,1.15v8.06a1.16,1.16,0,0,0,2.32,0v-8.06A1.16,1.16,0,0,0,387.44,122.07Z"/><path class="cls-2" d="M390.64,122.07a1.16,1.16,0,0,0-1.15,1.15v8.06a1.16,1.16,0,0,0,2.31,0v-8.06A1.16,1.16,0,0,0,390.64,122.07Z"/><path class="cls-2" d="M396.23,122.07a1.16,1.16,0,0,0-1.16,1.15v8.06a1.16,1.16,0,0,0,2.31,0v-8.06A1.16,1.16,0,0,0,396.23,122.07Z"/><path class="cls-2" d="M399.43,122.07a1.16,1.16,0,0,0-1.16,1.15v8.06a1.16,1.16,0,0,0,2.32,0v-8.06A1.16,1.16,0,0,0,399.43,122.07Z"/><path class="cls-2" d="M402.64,122.07a1.16,1.16,0,0,0-1.16,1.15v8.06a1.16,1.16,0,0,0,2.31,0v-8.06A1.15,1.15,0,0,0,402.64,122.07Z"/><rect class="cls-2" x="404.69" y="122.07" width="2.32" height="10.37" rx="1.16"/><path class="cls-2" d="M411.42,122.07a1.15,1.15,0,0,0-1.15,1.15v8.06a1.16,1.16,0,0,0,2.31,0v-8.06A1.16,1.16,0,0,0,411.42,122.07Z"/><path class="cls-2" d="M414.63,122.07a1.16,1.16,0,0,0-1.16,1.15v8.06a1.16,1.16,0,0,0,2.32,0v-8.06A1.16,1.16,0,0,0,414.63,122.07Z"/><path class="cls-2" d="M417.84,122.07a1.16,1.16,0,0,0-1.16,1.15v8.06a1.16,1.16,0,0,0,2.31,0v-8.06A1.15,1.15,0,0,0,417.84,122.07Z"/><path class="cls-2" d="M421,122.07a1.16,1.16,0,0,0-1.16,1.15v8.06a1.16,1.16,0,0,0,2.32,0v-8.06A1.16,1.16,0,0,0,421,122.07Z"/><path class="cls-2" d="M87.07,122.07a1.16,1.16,0,0,0-1.16,1.15v8.06a1.16,1.16,0,0,0,2.32,0v-8.06A1.16,1.16,0,0,0,87.07,122.07Z"/><path class="cls-2" d="M90.28,122.07a1.16,1.16,0,0,0-1.16,1.15v8.06a1.16,1.16,0,0,0,2.32,0v-8.06A1.16,1.16,0,0,0,90.28,122.07Z"/><rect class="cls-2" x="92.33" y="122.07" width="2.32" height="10.37" rx="1.16"/><path class="cls-2" d="M96.69,122.07a1.16,1.16,0,0,0-1.16,1.15v8.06a1.16,1.16,0,0,0,2.32,0v-8.06A1.16,1.16,0,0,0,96.69,122.07Z"/><path class="cls-2" d="M102.27,122.07a1.16,1.16,0,0,0-1.16,1.15v8.06a1.16,1.16,0,0,0,2.32,0v-8.06A1.16,1.16,0,0,0,102.27,122.07Z"/><path class="cls-2" d="M105.48,122.07a1.16,1.16,0,0,0-1.16,1.15v8.06a1.16,1.16,0,0,0,2.31,0v-8.06A1.15,1.15,0,0,0,105.48,122.07Z"/><path class="cls-2" d="M108.68,122.07a1.16,1.16,0,0,0-1.16,1.15v8.06a1.16,1.16,0,0,0,2.32,0v-8.06A1.16,1.16,0,0,0,108.68,122.07Z"/><path class="cls-2" d="M111.89,122.07a1.16,1.16,0,0,0-1.16,1.15v8.06a1.16,1.16,0,0,0,2.32,0v-8.06A1.16,1.16,0,0,0,111.89,122.07Z"/><path class="cls-2" d="M117.47,122.07a1.16,1.16,0,0,0-1.16,1.15v8.06a1.16,1.16,0,0,0,2.32,0v-8.06A1.16,1.16,0,0,0,117.47,122.07Z"/><path class="cls-2" d="M120.67,122.07a1.15,1.15,0,0,0-1.15,1.15v8.06a1.16,1.16,0,0,0,2.31,0v-8.06A1.16,1.16,0,0,0,120.67,122.07Z"/><path class="cls-2" d="M123.88,122.07a1.16,1.16,0,0,0-1.16,1.15v8.06a1.16,1.16,0,0,0,2.32,0v-8.06A1.16,1.16,0,0,0,123.88,122.07Z"/><path class="cls-2" d="M127.09,122.07a1.16,1.16,0,0,0-1.16,1.15v8.06a1.16,1.16,0,0,0,2.31,0v-8.06A1.15,1.15,0,0,0,127.09,122.07Z"/><path class="cls-2" d="M132.67,122.07a1.16,1.16,0,0,0-1.16,1.15v8.06a1.16,1.16,0,0,0,2.31,0v-8.06A1.15,1.15,0,0,0,132.67,122.07Z"/><rect class="cls-2" x="134.72" y="122.07" width="2.32" height="10.37" rx="1.16"/><path class="cls-2" d="M139.08,122.07a1.16,1.16,0,0,0-1.16,1.15v8.06a1.16,1.16,0,0,0,2.32,0v-8.06A1.16,1.16,0,0,0,139.08,122.07Z"/><path class="cls-2" d="M142.28,122.07a1.16,1.16,0,0,0-1.15,1.15v8.06a1.16,1.16,0,0,0,2.31,0v-8.06A1.16,1.16,0,0,0,142.28,122.07Z"/><path class="cls-2" d="M147.87,122.07a1.16,1.16,0,0,0-1.16,1.15v8.06a1.16,1.16,0,0,0,2.31,0v-8.06A1.16,1.16,0,0,0,147.87,122.07Z"/><path class="cls-2" d="M151.07,122.07a1.16,1.16,0,0,0-1.16,1.15v8.06a1.16,1.16,0,0,0,2.32,0v-8.06A1.16,1.16,0,0,0,151.07,122.07Z"/><path class="cls-2" d="M154.28,122.07a1.16,1.16,0,0,0-1.16,1.15v8.06a1.16,1.16,0,0,0,2.31,0v-8.06A1.15,1.15,0,0,0,154.28,122.07Z"/><path class="cls-2" d="M157.48,122.07a1.15,1.15,0,0,0-1.15,1.15v8.06a1.16,1.16,0,0,0,2.31,0v-8.06A1.16,1.16,0,0,0,157.48,122.07Z"/><path class="cls-2" d="M163.06,122.07a1.15,1.15,0,0,0-1.15,1.15v8.06a1.16,1.16,0,0,0,2.31,0v-8.06A1.16,1.16,0,0,0,163.06,122.07Z"/><path class="cls-2" d="M166.27,122.07a1.16,1.16,0,0,0-1.16,1.15v8.06a1.16,1.16,0,0,0,2.32,0v-8.06A1.16,1.16,0,0,0,166.27,122.07Z"/><path class="cls-2" d="M169.48,122.07a1.16,1.16,0,0,0-1.16,1.15v8.06a1.16,1.16,0,0,0,2.31,0v-8.06A1.16,1.16,0,0,0,169.48,122.07Z"/><path class="cls-2" d="M172.68,122.07a1.16,1.16,0,0,0-1.16,1.15v8.06a1.16,1.16,0,0,0,2.32,0v-8.06A1.16,1.16,0,0,0,172.68,122.07Z"/><rect class="cls-2" x="177.1" y="122.07" width="2.32" height="10.37" rx="1.16"/><path class="cls-2" d="M181.47,122.07a1.16,1.16,0,0,0-1.16,1.15v8.06a1.16,1.16,0,0,0,2.32,0v-8.06A1.16,1.16,0,0,0,181.47,122.07Z"/><path class="cls-2" d="M184.67,122.07a1.15,1.15,0,0,0-1.15,1.15v8.06a1.16,1.16,0,0,0,2.31,0v-8.06A1.16,1.16,0,0,0,184.67,122.07Z"/><path class="cls-2" d="M187.88,122.07a1.16,1.16,0,0,0-1.16,1.15v8.06a1.16,1.16,0,0,0,2.32,0v-8.06A1.16,1.16,0,0,0,187.88,122.07Z"/><path class="cls-2" d="M193.46,122.07a1.16,1.16,0,0,0-1.16,1.15v8.06a1.16,1.16,0,0,0,2.32,0v-8.06A1.16,1.16,0,0,0,193.46,122.07Z"/><path class="cls-2" d="M196.67,122.07a1.16,1.16,0,0,0-1.16,1.15v8.06a1.16,1.16,0,0,0,2.31,0v-8.06A1.15,1.15,0,0,0,196.67,122.07Z"/><path class="cls-2" d="M199.87,122.07a1.16,1.16,0,0,0-1.16,1.15v8.06a1.16,1.16,0,0,0,2.32,0v-8.06A1.16,1.16,0,0,0,199.87,122.07Z"/><path class="cls-2" d="M203.08,122.07a1.16,1.16,0,0,0-1.16,1.15v8.06a1.16,1.16,0,0,0,2.32,0v-8.06A1.16,1.16,0,0,0,203.08,122.07Z"/><path class="cls-3" d="M87.1,92.55,45.36,110a3,3,0,0,0,1.27,5.69H213.16V92.3H88.38A3.47,3.47,0,0,0,87.1,92.55Z"/><path class="cls-3" d="M462.44,110,420.69,92.55a3.42,3.42,0,0,0-1.27-.25H294.64v23.35H461.17A3,3,0,0,0,462.44,110Z"/><path class="cls-4" d="M219.19,111.94h69.45a6,6,0,0,1,6,6v52.88a0,0,0,0,1,0,0H213.14a0,0,0,0,1,0,0V118a6,6,0,0,1,6-6Z"/><rect class="cls-1" x="215.31" y="74.98" width="77.21" height="38.29"/><path class="cls-4" d="M289.27,71.86a4.78,4.78,0,0,0-4,4.78v35.13a4.78,4.78,0,0,0,4,4.78,4.67,4.67,0,0,0,5.37-4.61V76.47A4.67,4.67,0,0,0,289.27,71.86Z"/><path class="cls-4" d="M217.11,71.86a4.77,4.77,0,0,0-4,4.78v35.13a4.77,4.77,0,0,0,4,4.78,4.67,4.67,0,0,0,5.37-4.61V76.47A4.67,4.67,0,0,0,217.11,71.86Z"/><path class="cls-4" d="M289.29,116.18a4.78,4.78,0,0,0-4,4.78v35.13a4.79,4.79,0,0,0,4,4.79,4.68,4.68,0,0,0,5.37-4.61V120.79A4.68,4.68,0,0,0,289.29,116.18Z"/><path class="cls-4" d="M217.13,116.18a4.78,4.78,0,0,0-3.95,4.78v35.13a4.79,4.79,0,0,0,3.95,4.79,4.68,4.68,0,0,0,5.37-4.61V120.79A4.68,4.68,0,0,0,217.13,116.18Z"/><rect class="cls-1" x="231.44" y="57.97" width="44.96" height="19.38" rx="5.72"/><path class="cls-2" d="M238.33,60.63a2.8,2.8,0,0,0-2.8,2.79v8.47a2.8,2.8,0,1,0,5.6,0V63.42A2.8,2.8,0,0,0,238.33,60.63Z"/><path class="cls-2" d="M246.12,60.63a2.79,2.79,0,0,0-2.79,2.79v8.47a2.8,2.8,0,1,0,5.59,0V63.42A2.8,2.8,0,0,0,246.12,60.63Z"/><path class="cls-2" d="M253.91,60.63a2.8,2.8,0,0,0-2.79,2.79v8.47a2.8,2.8,0,1,0,5.59,0V63.42A2.8,2.8,0,0,0,253.91,60.63Z"/><path class="cls-2" d="M261.71,60.63a2.8,2.8,0,0,0-2.8,2.79v8.47a2.8,2.8,0,1,0,5.59,0V63.42A2.8,2.8,0,0,0,261.71,60.63Z"/><rect class="cls-2" x="266.7" y="60.63" width="5.59" height="14.06" rx="2.8"/><path class="cls-5" d="M253.91,0a.58.58,0,0,0-.57.58V18.64a.58.58,0,1,0,1.15,0V.58A.58.58,0,0,0,253.91,0Z"/><path class="cls-6" d="M281.1,42.6,256.77,17.77a4,4,0,0,0-5.71,0L226.73,42.6a4,4,0,0,0,2.86,6.81h48.65A4,4,0,0,0,281.1,42.6Z"/><path class="cls-3" d="M241.4,33.44h25a4.41,4.41,0,0,0,0-8.82h-25a4.41,4.41,0,0,0,0,8.82Z"/><path class="cls-3" d="M226.91,45h54a4.41,4.41,0,0,0,0-8.82h-54a4.41,4.41,0,1,0,0,8.82Z"/><path class="cls-3" d="M286.4,49.41h-65a4.41,4.41,0,1,0,0,8.81h65a4.41,4.41,0,1,0,0-8.81Z"/><path class="cls-2" d="M267.36,153.27H240.47a1,1,0,0,0-.61,1.8l13.44,10.35a1,1,0,0,0,1.23,0L268,155.07A1,1,0,0,0,267.36,153.27Z"/><path class="cls-2" d="M268.86,119.07a1.43,1.43,0,1,0,0-2.86H239a1.43,1.43,0,0,0,0,2.86h.63v29.79H239a1.43,1.43,0,0,0,0,2.86h29.86a1.43,1.43,0,1,0,0-2.86H268V119.07Zm-12.39,0v29.79h-5.35V119.07Zm-13.77,0h5.35v29.79H242.7Zm22.19,29.79h-5.35V119.07h5.35Z"/><path class="cls-2" d="M270,110.09H237.79a2.31,2.31,0,0,0,0,4.61H270a2.31,2.31,0,0,0,0-4.61Z"/><path class="cls-2" d="M238.3,109.54h31.23a1,1,0,1,0,0-1.91H238.3a1,1,0,1,0,0,1.91Z"/><path class="cls-2" d="M240.83,107.35H267a1,1,0,0,0,0-1.9H240.83a.95.95,0,1,0,0,1.9Z"/><path class="cls-2" d="M243,105.17H264.8a1,1,0,0,0,0-1.91H243a1,1,0,0,0,0,1.91Z"/><path class="cls-2" d="M244.8,103H263a1,1,0,0,0,0-1.9H244.8a1,1,0,0,0,0,1.9Z"/><path class="cls-2" d="M246.77,100.8h14.29a1,1,0,1,0,0-1.91H246.77a1,1,0,1,0,0,1.91Z"/><path class="cls-2" d="M249.14,98.61h9.54a1,1,0,1,0,0-1.9h-9.54a.95.95,0,1,0,0,1.9Z"/><path class="cls-2" d="M251.09,96.43h5.64a1,1,0,1,0,0-1.91h-5.64a1,1,0,0,0,0,1.91Z"/><path class="cls-2" d="M253.91,94a1,1,0,0,0,1-1V87.41a1,1,0,0,0-1.91,0v5.64A1,1,0,0,0,253.91,94Z"/><rect class="cls-3" y="229.91" width="507.79" height="9.82" rx="3.64"/><rect class="cls-7" x="6.1" y="170.55" width="199.91" height="59.91" rx="9.03"/><rect class="cls-2" x="175.83" y="205.15" width="11.28" height="24.78" rx="5.64"/><rect class="cls-2" x="174.4" y="181.6" width="13.19" height="13.19" rx="4.15"/><rect class="cls-2" x="158.67" y="205.15" width="11.28" height="24.78" rx="5.64"/><rect class="cls-2" x="157.24" y="181.6" width="13.19" height="13.19" rx="4.15"/><rect class="cls-2" x="141.51" y="205.15" width="11.28" height="24.78" rx="5.64"/><rect class="cls-2" x="140.08" y="181.6" width="13.19" height="13.19" rx="4.15"/><rect class="cls-2" x="124.35" y="205.15" width="11.28" height="24.78" rx="5.64"/><rect class="cls-2" x="122.93" y="181.6" width="13.19" height="13.19" rx="4.15"/><rect class="cls-2" x="107.2" y="205.15" width="11.28" height="24.78" rx="5.64"/><rect class="cls-2" x="105.77" y="181.6" width="13.19" height="13.19" rx="4.15"/><rect class="cls-2" x="90.04" y="205.15" width="11.28" height="24.78" rx="5.64"/><rect class="cls-2" x="88.61" y="181.6" width="13.19" height="13.19" rx="4.15"/><rect class="cls-2" x="72.88" y="205.15" width="11.28" height="24.78" rx="5.64"/><rect class="cls-2" x="71.45" y="181.6" width="13.19" height="13.19" rx="4.15"/><rect class="cls-2" x="55.73" y="205.15" width="11.28" height="24.78" rx="5.64"/><rect class="cls-2" x="54.3" y="181.6" width="13.19" height="13.19" rx="4.15"/><rect class="cls-2" x="38.57" y="205.15" width="11.28" height="24.78" rx="5.64"/><rect class="cls-2" x="37.14" y="181.6" width="13.19" height="13.19" rx="4.15"/><path class="cls-3" d="M235.62,166.08l-29.1-18.82a1.64,1.64,0,0,0-.89-.28H31.68a1.66,1.66,0,0,0-.89.28L1.7,166.08c-2.18,1.41-1.49,6.16.88,6.16H234.73C237.11,172.24,237.79,167.49,235.62,166.08Z"/><rect class="cls-7" x="301.85" y="170.55" width="199.91" height="59.91" rx="9.03"/><path class="cls-2" d="M326.39,205.15a5.66,5.66,0,0,0-5.64,5.64V224.3a5.64,5.64,0,1,0,11.28,0V210.79A5.65,5.65,0,0,0,326.39,205.15Z"/><rect class="cls-2" x="320.28" y="181.6" width="13.19" height="13.19" rx="4.15"/><path class="cls-2" d="M343.55,205.15a5.66,5.66,0,0,0-5.64,5.64V224.3a5.64,5.64,0,0,0,11.28,0V210.79A5.66,5.66,0,0,0,343.55,205.15Z"/><rect class="cls-2" x="337.43" y="181.6" width="13.19" height="13.19" rx="4.15"/><path class="cls-2" d="M360.71,205.15a5.66,5.66,0,0,0-5.64,5.64V224.3a5.64,5.64,0,0,0,11.28,0V210.79A5.66,5.66,0,0,0,360.71,205.15Z"/><rect class="cls-2" x="354.59" y="181.6" width="13.19" height="13.19" rx="4.15"/><path class="cls-2" d="M377.87,205.15a5.65,5.65,0,0,0-5.64,5.64V224.3a5.64,5.64,0,1,0,11.28,0V210.79A5.66,5.66,0,0,0,377.87,205.15Z"/><rect class="cls-2" x="371.75" y="181.6" width="13.19" height="13.19" rx="4.15"/><path class="cls-2" d="M395,205.15a5.66,5.66,0,0,0-5.64,5.64V224.3a5.64,5.64,0,0,0,11.28,0V210.79A5.66,5.66,0,0,0,395,205.15Z"/><rect class="cls-2" x="388.91" y="181.6" width="13.19" height="13.19" rx="4.15"/><path class="cls-2" d="M412.18,205.15a5.66,5.66,0,0,0-5.64,5.64V224.3a5.64,5.64,0,0,0,11.28,0V210.79A5.66,5.66,0,0,0,412.18,205.15Z"/><rect class="cls-2" x="406.06" y="181.6" width="13.19" height="13.19" rx="4.15"/><path class="cls-2" d="M429.34,205.15a5.66,5.66,0,0,0-5.64,5.64V224.3a5.64,5.64,0,0,0,11.28,0V210.79A5.66,5.66,0,0,0,429.34,205.15Z"/><rect class="cls-2" x="423.22" y="181.6" width="13.19" height="13.19" rx="4.15"/><path class="cls-2" d="M446.49,205.15a5.65,5.65,0,0,0-5.63,5.64V224.3a5.64,5.64,0,1,0,11.27,0V210.79A5.65,5.65,0,0,0,446.49,205.15Z"/><rect class="cls-2" x="440.38" y="181.6" width="13.19" height="13.19" rx="4.15"/><path class="cls-2" d="M463.65,205.15a5.66,5.66,0,0,0-5.64,5.64V224.3a5.64,5.64,0,0,0,11.28,0V210.79A5.66,5.66,0,0,0,463.65,205.15Z"/><rect class="cls-2" x="457.54" y="181.6" width="13.19" height="13.19" rx="4.15"/><path class="cls-3" d="M506.16,166.08l-29.09-18.82a1.66,1.66,0,0,0-.89-.28H302.23a1.64,1.64,0,0,0-.89.28l-29.1,18.82c-2.17,1.41-1.49,6.16.89,6.16H505.28C507.65,172.24,508.34,167.49,506.16,166.08Z"/><rect class="cls-1" x="196.55" y="196.28" width="114.73" height="43.45"/><rect class="cls-8" x="234.86" y="211.59" width="42.66" height="28.14" rx="5.72"/><path class="cls-8" d="M297.52,211.05a2.81,2.81,0,0,0-2.8,2.8v12.27a2.8,2.8,0,0,0,5.6,0V213.85A2.81,2.81,0,0,0,297.52,211.05Z"/><path class="cls-8" d="M214.28,211.05a2.81,2.81,0,0,0-2.8,2.8v12.27a2.8,2.8,0,0,0,5.59,0V213.85A2.81,2.81,0,0,0,214.28,211.05Z"/><path class="cls-3" d="M339.11,190.24l-21.2-19.09a.92.92,0,0,0-.64-.28H190.56a.92.92,0,0,0-.64.28l-21.2,19.09c-1.58,1.42-1.08,6.25.65,6.25H338.46C340.19,196.49,340.69,191.66,339.11,190.24Z"/></g></g></svg>