<svg xmlns="http://www.w3.org/2000/svg" viewBox="0 0 261.63 235.22"><defs><style>.cls-1{fill:#4a79a7;}.cls-2{fill:#ec8d88;}.cls-3{fill:#d0d2d3;}.cls-4{fill:#bbbdbf;}.cls-5{fill:#7d8da0;}.cls-6{fill:#f1f1f2;}.cls-7{fill:#42759f;}.cls-8{fill:#e6e7e8;}</style></defs><g id="Layer_2" data-name="Layer 2"><g id="Layer_1-2" data-name="Layer 1"><path class="cls-1" d="M130.81,0q-5.62,0-11.12.5l.28,0C86.69,15.35,80.19,78,78.92,100.89A8.91,8.91,0,0,1,70,109.32H31.11a8.92,8.92,0,0,1-8.86-9.85c3.65-35,47.58-83.19,47.58-83.19A122.16,122.16,0,0,0,8.6,122.22H253A122.22,122.22,0,0,0,130.81,0Z"/><path class="cls-2" d="M31.11,109.32H70a8.91,8.91,0,0,0,8.89-8.43C80.19,78,86.69,15.35,120,.48l-.28,0C116.72.72,90.78,3,69.83,16.28h0S25.9,64.43,22.25,99.47A8.92,8.92,0,0,0,31.11,109.32Z"/><rect class="cls-3" x="8.6" y="109.32" width="244.43" height="125.9" rx="11.05"/><path class="cls-4" d="M245,125.29a2.45,2.45,0,0,0-2.45,2.45v105a2.46,2.46,0,1,0,4.91,0v-105A2.46,2.46,0,0,0,245,125.29Z"/><path class="cls-4" d="M219.56,125.29a2.46,2.46,0,0,0-2.46,2.45v105a2.46,2.46,0,1,0,4.91,0v-105A2.45,2.45,0,0,0,219.56,125.29Z"/><path class="cls-4" d="M194.07,125.29a2.46,2.46,0,0,0-2.46,2.45v105a2.46,2.46,0,0,0,4.92,0v-105A2.46,2.46,0,0,0,194.07,125.29Z"/><path class="cls-4" d="M168.58,125.29a2.45,2.45,0,0,0-2.45,2.45v105a2.46,2.46,0,1,0,4.91,0v-105A2.46,2.46,0,0,0,168.58,125.29Z"/><path class="cls-4" d="M143.1,125.29a2.46,2.46,0,0,0-2.46,2.45v105a2.46,2.46,0,1,0,4.91,0v-105A2.45,2.45,0,0,0,143.1,125.29Z"/><path class="cls-4" d="M117.61,125.29a2.46,2.46,0,0,0-2.46,2.45v105a2.46,2.46,0,0,0,4.92,0v-105A2.46,2.46,0,0,0,117.61,125.29Z"/><path class="cls-4" d="M92.12,125.29a2.45,2.45,0,0,0-2.45,2.45v105a2.46,2.46,0,1,0,4.91,0v-105A2.46,2.46,0,0,0,92.12,125.29Z"/><path class="cls-4" d="M66.63,125.29a2.45,2.45,0,0,0-2.45,2.45v105a2.46,2.46,0,1,0,4.91,0v-105A2.46,2.46,0,0,0,66.63,125.29Z"/><path class="cls-4" d="M41.15,125.29a2.46,2.46,0,0,0-2.46,2.45v105a2.46,2.46,0,1,0,4.91,0v-105A2.45,2.45,0,0,0,41.15,125.29Z"/><path class="cls-4" d="M15.66,125.29a2.46,2.46,0,0,0-2.46,2.45v105a2.46,2.46,0,0,0,4.92,0v-105A2.46,2.46,0,0,0,15.66,125.29Z"/><rect class="cls-5" y="109.32" width="261.63" height="15.97" rx="7.98"/><rect class="cls-6" x="8.6" y="147.4" width="171.96" height="87.82" rx="8.21"/><rect class="cls-4" x="33.79" y="171.6" width="28.86" height="55.27" rx="5.68"/><rect class="cls-4" x="86.9" y="168.58" width="28.86" height="35.31" rx="5.68"/><rect class="cls-4" x="130.81" y="168.58" width="28.86" height="35.31" rx="5.68"/><path class="cls-5" d="M186.7,147.4H4.3a4.3,4.3,0,1,0,0,8.59H186.7a4.3,4.3,0,1,0,0-8.59Z"/><path class="cls-7" d="M45.8,47.29H215.44a5.35,5.35,0,1,0,0-10.69H45.8a5.35,5.35,0,0,0,0,10.69Z"/><path class="cls-7" d="M235.48,65.62h-210a5.35,5.35,0,0,0,0,10.69h210a5.35,5.35,0,0,0,0-10.69Z"/><path class="cls-8" d="M31.11,109.32H70a8.91,8.91,0,0,0,8.89-8.43C80.19,78,86.69,15.35,120,.48l-.28,0C116.72.72,90.78,3,69.83,16.28h0S25.9,64.43,22.25,99.47A8.92,8.92,0,0,0,31.11,109.32Z"/><circle class="cls-3" cx="53.68" cy="75.75" r="17.27"/><rect class="cls-4" x="26.99" y="226.34" width="42.46" height="8.87" rx="0.58"/></g></g></svg>