<svg xmlns="http://www.w3.org/2000/svg" viewBox="0 0 537.58 176.96"><defs><style>.cls-1{fill:#f1f1f2;}.cls-2{fill:#f2acad;}.cls-3{fill:#e6e7e8;}</style></defs><g id="Layer_2" data-name="Layer 2"><g id="Layer_1-2" data-name="Layer 1"><path class="cls-1" d="M198.06,82.43A1.48,1.48,0,1,0,195.53,84L248,169.07a1.49,1.49,0,0,0,2.53-1.56Z"/><path class="cls-1" d="M199.16,69.74a1.48,1.48,0,0,0-2.29,1.88l80.61,97.62a1.49,1.49,0,0,0,2.08.2h0a1.49,1.49,0,0,0,.2-2.09Z"/><path class="cls-1" d="M199.55,60.34a1.47,1.47,0,0,0-2.09,0h0a1.47,1.47,0,0,0,0,2.09L310,169.37a1.47,1.47,0,0,0,2.09-.06h0a1.48,1.48,0,0,0-.05-2.09Z"/><path class="cls-1" d="M340.68,167.13,199.11,54.41a1.48,1.48,0,0,0-1.85,2.32L338.83,169.45a1.48,1.48,0,0,0,1.85-2.32Z"/><path class="cls-1" d="M376.94,167.07,198.64,45.76A1.48,1.48,0,0,0,197,48.21l178.3,121.31a1.48,1.48,0,1,0,1.67-2.45Z"/><path class="cls-1" d="M409.61,167,199.67,39.52a1.48,1.48,0,0,0-1.53,2.53L408.07,169.56a1.48,1.48,0,1,0,1.54-2.53Z"/><path class="cls-1" d="M444.86,167,200,34.58a1.48,1.48,0,1,0-1.41,2.6L443.45,169.6a1.5,1.5,0,0,0,2-.6A1.48,1.48,0,0,0,444.86,167Z"/><path class="cls-1" d="M483.59,167,200,27.83a1.48,1.48,0,1,0-1.31,2.66L482.29,169.62a1.48,1.48,0,1,0,1.3-2.66Z"/><path class="cls-1" d="M520.9,167.52l-330-150.41a1.18,1.18,0,0,0-1,2.15l330,150.41a1.18,1.18,0,0,0,1-2.15Z"/><path class="cls-1" d="M13.67,169.61a1.48,1.48,0,0,0,1.88,2.29L189,28.69V24.85Z"/><polygon class="cls-1" points="18.14 176.96 188.97 35.89 188.97 32.05 13.48 176.96 18.14 176.96"/><polygon class="cls-1" points="26.86 176.96 188.97 43.09 188.97 39.25 22.2 176.96 26.86 176.96"/><polygon class="cls-1" points="35.57 176.96 188.97 50.29 188.97 46.45 30.92 176.96 35.57 176.96"/><polygon class="cls-1" points="44.29 176.96 188.97 57.49 188.97 53.65 39.64 176.96 44.29 176.96"/><polygon class="cls-1" points="65.3 166.82 188.97 64.69 188.97 60.85 60.65 166.82 65.3 166.82"/><path class="cls-2" d="M202.67,5.53A5.52,5.52,0,0,0,197.2,0S180,6.25,180.61,26.85s-8.72,137.61-8.72,137.61a5.52,5.52,0,0,0,5.47,5.54s22.1,5,20-6Z"/><path class="cls-3" d="M532.51,166.82H5.07a5.07,5.07,0,0,0,0,10.14H532.51a5.07,5.07,0,1,0,0-10.14Z"/></g></g></svg>