<svg width="143" height="148" viewBox="0 0 143 148" fill="none" xmlns="http://www.w3.org/2000/svg">
<g clip-path="url(#clip0)">
<path d="M105.166 64.7825C102.818 65.1966 101.206 65.2126 100.756 65.2026L100.777 49.5554L100.69 49.5708C100.777 49.5554 106.395 49.3695 109.021 45.9564C111.52 42.8341 110.935 37.4843 110.074 33.6137C109.151 29.3962 111.814 25.1722 116.045 24.2473C120.277 23.3224 124.511 25.9727 125.434 30.1901C127.836 40.7617 126.402 49.4172 121.262 55.8659C116.392 61.8198 109.602 64.0004 105.166 64.7825Z" fill="#3FAFE0"/>
<path d="M91.2777 99.9486L89.927 129.418L81.1421 130.967L78.4918 102.203L91.2777 99.9486Z" fill="#2685BF"/>
<path d="M76.1433 102.617L78.1848 131.488L69.3129 133.052L61.8787 105.132L76.1433 102.617Z" fill="#3FAFE0"/>
<path d="M93.8954 131.578L89.927 129.418L81.2291 130.951L80.9355 133.864L93.8954 131.578Z" fill="#2685BF"/>
<path d="M82.0662 133.664L78.0979 131.504L69.3999 133.037L69.1933 135.934L82.0662 133.664Z" fill="#3FAFE0"/>
<path d="M114.014 60.5407C93.4326 10.4457 41.0647 14.048 41.0647 14.048C41.0647 14.048 54.7916 19.6727 53.0298 37.1465C51.3702 54.6916 35.1641 60.946 35.1641 60.946C29.2752 76.3764 27.8792 97.4506 44.1632 111.474C47.3382 114.222 51.0715 116.067 55.1737 116.952C60.8616 118.184 70.2991 119.827 79.5696 118.997C79.5849 119.084 134.596 110.636 114.014 60.5407Z" fill="#3FAFE0"/>
<path d="M53.0298 37.1465C54.7047 19.6881 41.0648 14.048 41.0648 14.048C41.0648 14.048 51.8353 33.4239 41.5163 48.6521C39.2375 52.0038 37.0245 56.2378 35.1794 61.0327C35.1794 61.0327 51.3703 54.6916 53.0298 37.1465Z" fill="#54C3EA"/>
<path d="M84.0531 79.3217C83.9661 79.337 83.8791 79.3524 83.7921 79.3677L84.587 83.8759C84.8011 85.0896 83.9408 86.314 82.723 86.5287L81.7663 86.6974L77.0694 87.5256L76.1126 87.6943C74.8949 87.909 73.6677 87.0527 73.4537 85.839L72.6435 81.2441C63.031 81.1513 56.895 76.8697 56.895 76.8697C56.895 76.8697 47.256 100.023 83.0045 93.7198C118.753 87.4164 101.486 67.3087 101.486 67.3087C101.486 67.3087 99.6572 70.6705 94.5491 74.2529" fill="#2685BF"/>
<path d="M76.1127 87.6943L77.0694 87.5256C75.8517 87.7403 74.6245 86.884 74.4105 85.6703L73.6309 81.2488C73.2677 81.2235 72.9198 81.2848 72.6436 81.2441L73.4538 85.839C73.6831 87.1394 74.895 87.909 76.1127 87.6943Z" fill="#E6E7E8"/>
<path d="M83.6304 84.0445C83.8444 85.2582 82.9841 86.4826 81.7663 86.6973L82.7231 86.5286C83.9408 86.3139 84.8011 85.0895 84.5871 83.8758L83.7922 79.3676C83.4596 79.5156 83.1987 79.5616 82.8507 79.623L83.6304 84.0445Z" fill="white"/>
<path d="M83.6303 84.0445L82.866 79.7098C82.605 79.7558 82.4463 79.8732 82.1854 79.9192C79.1153 80.8181 76.3014 81.1355 73.6309 81.2488L74.4105 85.6702C74.6245 86.884 75.8517 87.7403 77.0694 87.5256L81.7663 86.6974C83.071 86.4673 83.8596 85.345 83.6303 84.0445Z" fill="white"/>
<path d="M71.0072 94.8519C71.0072 94.8519 85.1079 85.3037 92.8069 85.7339C100.506 86.1642 101.396 86.6331 101.396 86.6331C101.396 86.6331 95.3556 91.5419 84.6571 93.4283C77.4379 94.7013 71.0072 94.8519 71.0072 94.8519Z" fill="#AD3E3E"/>
<path d="M37.1483 76.776C32.7123 77.5582 25.5858 77.8315 18.9586 73.8154C12.0245 69.5852 7.71721 61.9419 6.34353 51.0996C5.76844 46.8209 8.84067 42.8823 13.1332 42.3042C17.4258 41.7261 21.3731 44.7845 21.9482 49.0633C22.4774 53.0819 23.7425 58.2223 27.1584 60.3017C30.8811 62.5952 36.2232 60.8487 36.2232 60.8487L36.1362 60.8641L41.5231 75.6471C41.1035 75.8104 39.4967 76.3619 37.1483 76.776Z" fill="#3FAFE0"/>
<path d="M76.0242 67.8652L61.6426 62.0876" stroke="#2685BF" stroke-width="5" stroke-miterlimit="10" stroke-linecap="round" stroke-linejoin="round"/>
<path d="M83.7654 66.5002L95.3907 56.137" stroke="#2685BF" stroke-width="5" stroke-miterlimit="10" stroke-linecap="round" stroke-linejoin="round"/>
</g>
<defs>
<clipPath id="clip0">
<rect width="121" height="128" fill="white" transform="translate(0.967285 21.1182) rotate(-10)"/>
</clipPath>
</defs>
</svg>
