<svg width="40" height="41" viewBox="0 0 40 41" fill="none" xmlns="http://www.w3.org/2000/svg">
<rect y="0.00292969" width="40" height="40" fill="#EEEEEE"/>
<path d="M29.3335 10.6699H10.6668C10.3132 10.6699 9.97407 10.8104 9.72402 11.0604C9.47397 11.3105 9.3335 11.6496 9.3335 12.0033V28.0033C9.3335 28.3569 9.47397 28.696 9.72402 28.9461C9.97407 29.1961 10.3132 29.3366 10.6668 29.3366H29.3335C29.6871 29.3366 30.0263 29.1961 30.2763 28.9461C30.5264 28.696 30.6668 28.3569 30.6668 28.0033V12.0033C30.6668 11.6496 30.5264 11.3105 30.2763 11.0604C30.0263 10.8104 29.6871 10.6699 29.3335 10.6699ZM10.6668 28.0033V12.0033H29.3335V28.0033H10.6668Z" fill="#CCCCCC"/>
<path d="M13.9465 17.3359C14.3421 17.3359 14.7288 17.2186 15.0577 16.9989C15.3866 16.7791 15.6429 16.4668 15.7943 16.1013C15.9457 15.7359 15.9853 15.3337 15.9081 14.9458C15.8309 14.5578 15.6405 14.2014 15.3607 13.9217C15.081 13.642 14.7247 13.4515 14.3367 13.3744C13.9488 13.2972 13.5466 13.3368 13.1812 13.4882C12.8157 13.6396 12.5034 13.8959 12.2836 14.2248C12.0638 14.5537 11.9465 14.9404 11.9465 15.3359C11.9465 15.8664 12.1572 16.3751 12.5323 16.7502C12.9074 17.1252 13.4161 17.3359 13.9465 17.3359ZM13.9465 14.2693C14.1578 14.268 14.3647 14.3294 14.5409 14.4458C14.7172 14.5622 14.855 14.7283 14.9367 14.9231C15.0185 15.1179 15.0406 15.3326 15.0002 15.5399C14.9598 15.7473 14.8587 15.938 14.7098 16.0878C14.5609 16.2376 14.3709 16.3399 14.1638 16.3816C13.9567 16.4233 13.7419 16.4026 13.5466 16.322C13.3513 16.2415 13.1843 16.1048 13.0668 15.9292C12.9493 15.7537 12.8865 15.5472 12.8865 15.3359C12.8883 15.0553 13.0005 14.7867 13.1989 14.5883C13.3973 14.3899 13.6659 14.2777 13.9465 14.2759V14.2693Z" fill="#CCCCCC"/>
<path d="M23.1865 18.2495L19.5865 21.8495L16.9199 19.1829C16.795 19.0587 16.626 18.989 16.4499 18.989C16.2737 18.989 16.1048 19.0587 15.9799 19.1829L11.9465 23.2695V25.1562L16.4732 20.6295L18.6665 22.7895L16.1665 25.2895H17.9999L23.6332 19.6562L27.9999 24.0029V22.1229L24.1265 18.2495C24.0016 18.1254 23.8327 18.0557 23.6565 18.0557C23.4804 18.0557 23.3114 18.1254 23.1865 18.2495Z" fill="#CCCCCC"/>
</svg>
