<svg width="40" height="40" viewBox="0 0 40 40" fill="none" xmlns="http://www.w3.org/2000/svg">
<path d="M35.5555 4.44489L4.44439 4.44489C3.85502 4.44489 3.28979 4.67901 2.87304 5.09576C2.45629 5.51251 2.22217 6.07774 2.22217 6.66711L2.22217 33.3338C2.22217 33.9232 2.45629 34.4884 2.87304 34.9051C3.28979 35.3219 3.85502 35.556 4.44439 35.556H35.5555C36.1449 35.556 36.7101 35.3219 37.1269 34.9051C37.5436 34.4884 37.7777 33.9232 37.7777 33.3338V6.66711C37.7777 6.07774 37.5436 5.51251 37.1269 5.09576C36.7101 4.67901 36.1449 4.44489 35.5555 4.44489ZM4.44439 33.3338V6.66711H35.5555V33.3338H4.44439Z" fill="white"/>
<path d="M9.91097 15.5552C10.5702 15.5552 11.2147 15.3597 11.7629 14.9934C12.311 14.6272 12.7383 14.1066 12.9906 13.4975C13.2429 12.8884 13.3089 12.2182 13.1803 11.5716C13.0516 10.925 12.7342 10.331 12.268 9.86486C11.8018 9.39869 11.2079 9.08122 10.5613 8.9526C9.91467 8.82398 9.24445 8.88999 8.63536 9.14229C8.02627 9.39458 7.50568 9.82182 7.1394 10.37C6.77313 10.9181 6.57764 11.5626 6.57764 12.2219C6.57764 13.1059 6.92883 13.9538 7.55395 14.5789C8.17907 15.204 9.02692 15.5552 9.91097 15.5552ZM9.91097 10.4441C10.263 10.4419 10.6079 10.5443 10.9017 10.7383C11.1955 10.9323 11.4251 11.2092 11.5613 11.5338C11.6976 11.8585 11.7344 12.2163 11.667 12.5618C11.5997 12.9074 11.4313 13.2252 11.1831 13.475C10.9349 13.7247 10.6182 13.8951 10.273 13.9646C9.92786 14.0341 9.56984 13.9996 9.24435 13.8654C8.91885 13.7311 8.64054 13.5033 8.4447 13.2107C8.24886 12.9181 8.14431 12.574 8.1443 12.2219C8.14722 11.7542 8.33428 11.3066 8.66497 10.9759C8.99565 10.6452 9.44332 10.4581 9.91097 10.4552V10.4441Z" fill="white"/>
<path d="M25.311 17.0777L19.311 23.0777L14.8665 18.6333C14.6583 18.4264 14.3767 18.3102 14.0832 18.3102C13.7896 18.3102 13.508 18.4264 13.2999 18.6333L6.57764 25.4444V28.5888L14.1221 21.0444L17.7776 24.6444L13.611 28.8111H16.6665L26.0554 19.4222L33.3332 26.6666V23.5333L26.8776 17.0777C26.6694 16.8708 26.3878 16.7546 26.0943 16.7546C25.8008 16.7546 25.5191 16.8708 25.311 17.0777Z" fill="white"/>
</svg>
