<svg width="270" height="270" viewBox="0 0 270 270" fill="none" xmlns="http://www.w3.org/2000/svg">
<rect width="270" height="269.999" fill="#EEEEEE"/>
<path d="M166.111 103.888H103.889C102.71 103.888 101.58 104.357 100.746 105.19C99.9128 106.024 99.4446 107.154 99.4446 108.333V161.666C99.4446 162.845 99.9128 163.975 100.746 164.809C101.58 165.642 102.71 166.111 103.889 166.111H166.111C167.29 166.111 168.42 165.642 169.254 164.809C170.087 163.975 170.556 162.845 170.556 161.666V108.333C170.556 107.154 170.087 106.024 169.254 105.19C168.42 104.357 167.29 103.888 166.111 103.888ZM103.889 161.666V108.333H166.111V161.666H103.889Z" fill="#CCCCCC"/>
<path d="M114.822 126.11C116.141 126.11 117.43 125.719 118.526 124.987C119.622 124.254 120.477 123.213 120.981 121.995C121.486 120.777 121.618 119.436 121.361 118.143C121.104 116.85 120.469 115.662 119.536 114.73C118.604 113.797 117.416 113.162 116.123 112.905C114.83 112.648 113.489 112.78 112.271 113.285C111.053 113.789 110.012 114.644 109.279 115.74C108.547 116.836 108.156 118.125 108.156 119.444C108.156 121.212 108.858 122.908 110.108 124.158C111.358 125.408 113.054 126.11 114.822 126.11ZM114.822 115.888C115.526 115.884 116.216 116.089 116.804 116.477C117.391 116.865 117.85 117.418 118.123 118.068C118.395 118.717 118.469 119.433 118.334 120.124C118.2 120.815 117.863 121.45 117.366 121.95C116.87 122.449 116.237 122.79 115.546 122.929C114.856 123.068 114.14 122.999 113.489 122.731C112.838 122.462 112.281 122.007 111.89 121.421C111.498 120.836 111.289 120.148 111.289 119.444C111.295 118.508 111.669 117.613 112.33 116.952C112.992 116.29 113.887 115.916 114.822 115.91V115.888Z" fill="#CCCCCC"/>
<path d="M145.622 129.155L133.622 141.155L124.733 132.266C124.317 131.852 123.754 131.62 123.167 131.62C122.58 131.62 122.016 131.852 121.6 132.266L108.156 145.888V152.177L123.244 137.088L130.556 144.288L122.222 152.622H128.333L147.111 133.844L161.667 148.333V142.066L148.756 129.155C148.339 128.741 147.776 128.509 147.189 128.509C146.602 128.509 146.039 128.741 145.622 129.155Z" fill="#CCCCCC"/>
</svg>
