<svg width="230" height="50" viewBox="0 0 230 50" fill="none" xmlns="http://www.w3.org/2000/svg">
<path d="M21.8384 42.3486C20.882 41.7641 20.1913 41.2327 19.8725 40.6482C19.5536 40.1169 19.3942 39.2667 19.3411 38.1509L19.1286 32.4655V32.2529C19.1286 32.0404 19.1286 31.8278 19.1817 31.6684C19.0223 31.2434 18.3315 29.8618 16.8438 29.1711C15.5154 28.5335 13.8151 28.6397 11.8491 29.4899C8.28903 30.9777 6.37617 30.1275 5.47288 29.3836V32.4655C5.41974 36.7694 5.36661 39.3199 5.2072 40.0638C5.10093 40.8608 4.67585 41.4453 3.93196 41.9235C2.70986 42.6142 1.96597 43.1456 1.64716 43.5175C1.32835 43.8895 1.16895 44.4208 1.16895 45.1116C1.16895 48.034 4.94153 49.5218 12.4867 49.5218C16.0999 49.5218 18.8629 49.1498 20.8289 48.3528C22.7949 47.5558 23.7513 46.44 23.7513 44.9522C23.8044 44.0489 23.1668 43.1987 21.8384 42.3486Z" fill="#00AFE6"/>
<path d="M15.781 37.9384L13.0712 38.6822H13.018V39.7981C13.018 40.1169 12.7523 40.3294 12.4867 40.3294H12.221H11.1052H10.8395C10.5207 40.3294 10.3081 40.0638 10.3081 39.7981V38.6822C8.02334 38.2572 6.7481 36.9819 6.7481 36.9819C6.7481 36.9819 4.30389 40.8076 9.35171 41.8172C9.40485 41.8172 13.0712 40.17 14.8777 40.542C16.6312 40.967 16.8437 41.1265 16.8437 41.1265C19.4474 39.5855 17.6939 36.5568 17.6939 36.5568C17.6939 36.5568 17.1094 37.3007 15.781 37.9384Z" fill="#0096D2"/>
<path d="M12.2209 42.0829C12.3803 42.0829 12.4866 42.0829 12.646 42.0829C10.9988 42.0829 9.56419 41.8703 9.40479 41.8172C10.1487 41.9766 11.052 42.0829 12.2209 42.0829Z" fill="#0096D2"/>
<path d="M16.8438 41.1796C16.7375 41.2327 15.6748 41.8172 13.9745 42.0298C15.2497 41.8703 16.2062 41.5515 16.8438 41.1796Z" fill="#0096D2"/>
<path d="M10.8396 40.3826H11.1053C10.7864 40.3826 10.5739 40.1169 10.5739 39.8512V38.7885C10.4676 38.7885 10.4145 38.7885 10.3082 38.7354V39.8512C10.3082 40.1169 10.5208 40.3826 10.8396 40.3826Z" fill="#E4E5E9"/>
<path d="M12.2211 40.3826H12.4867C12.8056 40.3826 13.0181 40.1169 13.0181 39.8512V38.7354C12.965 38.7354 12.8587 38.7354 12.7524 38.7885V39.8512C12.7524 40.1169 12.5399 40.3826 12.2211 40.3826Z" fill="white"/>
<path d="M11.1054 40.3826H12.2212C12.54 40.3826 12.7525 40.1169 12.7525 39.8512V38.7885C12.6994 38.7885 12.6463 38.7885 12.5931 38.7885C11.8492 38.8417 11.1585 38.8417 10.5209 38.7354V39.7981C10.5209 40.1169 10.7865 40.3826 11.1054 40.3826Z" fill="white"/>
<path d="M12.593 42.0829C13.0712 42.0829 13.5494 42.0298 13.9214 41.9766C13.5494 42.0298 13.1244 42.0829 12.593 42.0829Z" fill="#B15F5C"/>
<path d="M9.35168 41.8172C9.56422 41.8703 10.9989 42.0829 12.6461 42.0829C13.1243 42.0829 13.6025 42.0298 13.9744 41.9766C15.6747 41.7641 16.7374 41.1796 16.8437 41.1265C16.8437 41.1265 16.6312 40.9671 14.8777 40.542C13.0711 40.17 9.35168 41.8172 9.35168 41.8172Z" fill="#B15F5C"/>
<path d="M13.8683 36.1318C14.3996 36.1318 14.8247 35.7067 14.8247 35.1753C14.8247 34.644 14.3996 34.2189 13.8683 34.2189C13.3369 34.2189 12.9119 34.644 12.9119 35.1753C12.9119 35.7067 13.3369 36.1318 13.8683 36.1318Z" fill="#0096D2"/>
<path d="M11.3709 36.1318C11.9022 36.1318 12.3273 35.7067 12.3273 35.1753C12.3273 34.644 11.9022 34.2189 11.3709 34.2189C10.8395 34.2189 10.4144 34.644 10.4144 35.1753C10.4144 35.7067 10.7864 36.1318 11.3709 36.1318Z" fill="#0096D2"/>
<path d="M19.4474 26.9394C18.5972 25.5048 18.4378 24.2295 18.916 23.22C19.0223 22.9543 19.2349 22.6886 19.3943 22.4761C19.3411 22.2104 19.3411 21.9447 19.3411 21.6259V9.77682C19.3411 9.61741 19.3943 9.45801 19.4474 9.2986C19.5005 9.19234 19.5537 9.03293 19.6599 8.92666C19.7131 8.76725 19.7662 8.66099 19.8193 8.44845C19.9787 7.70456 19.8193 6.42932 18.2784 4.30392C17.5877 3.34749 17.2157 2.49733 17.2157 1.64717C16.6312 1.70031 16.2062 1.75344 15.9936 1.75344C15.4091 1.80658 13.39 1.85971 10.0425 1.85971H8.18278C6.21679 1.80658 5.04782 1.75344 4.51647 1.75344C3.02869 1.75344 1.91286 2.01912 1.16897 2.6036C0.371945 3.13495 0 3.93197 0 4.99467C0 6.48245 0.903294 7.54515 2.76302 8.12964C4.03826 8.50158 4.78215 9.03293 5.10096 9.67055C5.36663 10.3082 5.52604 11.7959 5.52604 14.187V28.5866V29.4368C6.42933 30.1806 8.34219 31.0839 11.9022 29.543C13.8682 28.6929 15.5154 28.5866 16.8969 29.2242C18.3847 29.915 19.0755 31.2965 19.2349 31.7216C19.288 31.6153 19.288 31.509 19.3943 31.4559C19.4474 31.3496 19.5537 31.2965 19.6599 31.2433C19.8725 31.0839 20.0319 30.6589 20.1913 30.2338C20.457 29.4368 20.1913 28.2678 19.4474 26.9394Z" fill="#F8E4A3"/>
<path d="M34.4314 3.29436C31.8278 1.75345 28.8522 0.956421 25.5047 0.956421C24.5483 0.956421 23.4325 1.00956 22.2635 1.16896C20.3506 1.3815 18.916 1.54091 17.8533 1.59404C17.8533 1.75345 17.8533 1.75345 17.8533 1.59404C17.6407 1.59404 17.4282 1.64718 17.2688 1.64718C17.2688 2.49733 17.6407 3.40063 18.3315 4.30392C19.8724 6.37619 20.0318 7.70456 19.8724 8.44845C19.8193 8.66099 19.7661 8.8204 19.713 8.92667C19.8724 8.76726 20.1381 8.60786 20.4569 8.50159C20.7757 8.39532 21.2008 8.34218 21.679 8.34218C23.0605 8.34218 24.2295 8.76726 25.239 9.61742C26.78 10.9458 27.577 13.1243 27.577 16.153C27.577 19.0754 26.8862 21.0946 25.5579 22.3698C24.6546 23.22 23.4856 23.6451 22.1572 23.6451C21.2539 23.6451 20.51 23.4856 19.9255 23.1668C19.8724 23.1137 19.8193 23.0606 19.713 23.0074C19.6067 22.848 19.5005 22.6886 19.4473 22.4229C19.2348 22.6355 19.0754 22.9012 18.9691 23.1668C18.4909 24.2295 18.6503 25.4516 19.5005 26.8863C20.2444 28.2147 20.51 29.3836 20.2444 30.1807C20.085 30.6057 19.9255 31.0308 19.713 31.1902C19.713 31.2434 19.713 31.1902 19.713 31.1902C19.8193 31.1371 19.9787 31.1371 20.085 31.1371C20.1381 31.1371 20.2444 31.1371 20.3506 31.1371C20.6163 31.1371 21.0414 31.1902 21.679 31.2434C23.2731 31.4028 24.6014 31.509 25.6641 31.509C29.9149 31.509 33.5812 30.1807 36.5568 27.5239C39.7449 24.6546 41.3389 20.882 41.3389 16.153C41.2327 10.255 39.001 6.00424 34.4314 3.29436Z" fill="#57C5DC"/>
<path d="M13.7088 12.8587C14.3996 12.8587 14.9309 12.3273 14.9309 11.6365C14.9309 10.9458 14.3996 10.4144 13.7088 10.4144C13.018 10.4144 12.4867 10.9458 12.4867 11.6365C12.4867 12.3273 13.0712 12.8587 13.7088 12.8587Z" fill="#00ABB1"/>
<path d="M10.5738 12.8587C11.2645 12.8587 11.7959 12.3273 11.7959 11.6365C11.7959 10.9458 11.2645 10.4144 10.5738 10.4144C9.88303 10.4144 9.35168 10.9458 9.35168 11.6365C9.35168 12.3273 9.88303 12.8587 10.5738 12.8587Z" fill="#00ABB1"/>
<path d="M15.5155 14.0276C15.5155 14.0276 15.1436 14.4527 14.3465 14.8778V16.0468C14.3465 16.2593 14.1871 16.3656 14.0277 16.3656H13.9215H13.1776H13.0713C12.8588 16.3656 12.7525 16.2062 12.7525 16.0468V15.356C12.7525 15.356 12.7525 15.356 12.6994 15.356V16.0468C12.6994 16.2593 12.54 16.3656 12.3806 16.3656H12.2211H11.5304H11.371C11.1584 16.3656 11.0522 16.2062 11.0522 16.0468V15.356C9.67067 15.0903 8.87364 14.2933 8.87364 14.2933C8.87364 14.2933 7.81094 20.5632 12.2743 20.5632C17.1627 20.5101 15.5155 14.0276 15.5155 14.0276Z" fill="#00ABB1"/>
<path d="M11.3178 16.3656H11.4772C11.2646 16.3656 11.1584 16.2062 11.1584 16.0468V15.356C11.1052 15.356 11.0521 15.356 10.9989 15.356V16.0468C10.9458 16.2062 11.1052 16.3656 11.3178 16.3656Z" fill="#E4E5E9"/>
<path d="M12.1678 16.3656H12.3273C12.5398 16.3656 12.6461 16.2062 12.6461 16.0468V15.356C12.5929 15.356 12.5398 15.356 12.4867 15.356V15.9936C12.4867 16.2062 12.3273 16.3656 12.1678 16.3656Z" fill="white"/>
<path d="M11.4239 16.3656H12.1147C12.3272 16.3656 12.4335 16.2062 12.4335 16.0468V15.4091C12.3804 15.4091 12.3804 15.4091 12.3272 15.4091C11.849 15.4623 11.4239 15.4623 11.052 15.356V16.0468C11.1051 16.2062 11.2645 16.3656 11.4239 16.3656Z" fill="white"/>
<path d="M13.018 16.3656H13.1243C12.9118 16.3656 12.8055 16.2062 12.8055 16.0468V15.356C12.7524 15.356 12.6992 15.356 12.6992 15.356V16.0468C12.6992 16.2062 12.8055 16.3656 13.018 16.3656Z" fill="#E4E5E9"/>
<path d="M13.8683 16.3656H13.9746C14.1871 16.3656 14.2934 16.2062 14.2934 16.0468V14.8778C14.2402 14.8778 14.1871 14.9309 14.1871 14.9309V16.0468C14.1871 16.2062 14.0808 16.3656 13.8683 16.3656Z" fill="white"/>
<path d="M13.1244 16.3656H13.8683C14.0808 16.3656 14.1871 16.2062 14.1871 16.0468V14.8778C13.8151 15.0372 13.3369 15.1966 12.7524 15.3029V15.9936C12.8056 16.2062 12.965 16.3656 13.1244 16.3656Z" fill="white"/>
<path d="M33.2094 11.6897C33.3156 11.6897 33.3688 11.6366 33.3688 11.6366C33.3156 11.6366 33.2625 11.6897 33.2094 11.6897Z" fill="#00ABB1"/>
<path d="M35.8661 11.6366C35.8661 11.6366 36.0255 11.6897 36.238 11.6897C36.0786 11.6366 35.9724 11.6366 35.8661 11.6366Z" fill="#00ABB1"/>
<path d="M36.3442 15.5154C36.2911 15.5154 36.2379 15.5154 36.1848 15.5685V15.6217C36.2379 15.5685 36.2911 15.5685 36.3442 15.5154Z" fill="#E4E5E9"/>
<path d="M34.0596 12.0616C34.0596 12.5398 33.6876 12.9118 33.2094 12.9118C32.7312 12.9118 32.3593 12.5398 32.3593 12.0616C32.3593 11.5834 32.7312 11.2115 33.2094 11.2115C33.6876 11.2115 34.0596 11.5834 34.0596 12.0616Z" fill="#00ABB1"/>
<path d="M32.6779 11.5303C32.6779 11.5303 32.9435 10.7864 32.9435 10.5738C32.9435 10.627 33.1561 11.1583 32.6779 11.5303Z" fill="#00ABB1"/>
<path d="M33.1031 11.4771C33.1031 11.4771 33.3688 10.7333 33.3688 10.5207C33.3157 10.5738 33.5282 11.1583 33.1031 11.4771Z" fill="#00ABB1"/>
<path d="M33.4751 11.5303C33.4751 11.5303 33.7408 10.7864 33.7408 10.5738C33.6876 10.5738 33.9002 11.1583 33.4751 11.5303Z" fill="#00ABB1"/>
<path d="M36.1848 12.0616C36.1848 12.5398 35.8129 12.9118 35.3347 12.9118C34.8564 12.9118 34.4845 12.5398 34.4845 12.0616C34.4845 11.5834 34.8564 11.2115 35.3347 11.2115C35.8129 11.2115 36.1848 11.5834 36.1848 12.0616Z" fill="#00ABB1"/>
<path d="M34.8033 11.5303C34.8033 11.5303 35.069 10.7864 35.069 10.5738C35.069 10.627 35.2284 11.1583 34.8033 11.5303Z" fill="#00ABB1"/>
<path d="M35.1753 11.4771C35.1753 11.4771 35.441 10.7333 35.441 10.5207C35.441 10.5738 35.6535 11.1583 35.1753 11.4771Z" fill="#00ABB1"/>
<path d="M35.6003 11.5303C35.6003 11.5303 35.866 10.7864 35.866 10.5738C35.8129 10.5738 36.0254 11.1583 35.6003 11.5303Z" fill="#00ABB1"/>
<path d="M32.7843 15.9405C33.3157 15.9936 34.2721 16.0468 34.9097 15.9405C35.2286 15.8873 36.0256 15.7811 36.5569 15.5685C37.6196 15.0903 37.9916 14.5058 37.9916 14.5058C37.9916 14.5058 40.5421 18.7035 33.847 18.7566C27.152 18.8629 29.7025 14.5058 29.7025 14.5058C29.7025 14.5058 30.9246 15.7279 32.7843 15.9405Z" fill="#00A8B0"/>
<path d="M34.9627 16.5781C34.9627 16.7906 34.8033 17.0032 34.5376 17.0032H34.697C34.9095 17.0032 35.1221 16.7906 35.1221 16.5781V15.7279C35.0689 15.7279 35.0158 15.7279 34.9627 15.7811V16.5781Z" fill="white"/>
<path d="M33.475 17.0563H33.6344C33.4219 17.0563 33.2093 16.8969 33.2093 16.6312V15.7811C33.1562 15.7811 33.1031 15.7811 33.0499 15.7279V16.5781C33.0499 16.8438 33.2625 17.0563 33.475 17.0563Z" fill="#E4E5E9"/>
<path d="M34.9629 16.5781V15.7811C34.9098 15.7811 34.8566 15.7811 34.8566 15.7811C34.2721 15.8342 33.7408 15.8342 33.2626 15.7811V16.6312C33.2626 16.8438 33.4751 17.0563 33.6877 17.0563H34.5378C34.8035 17.0032 34.9629 16.8438 34.9629 16.5781Z" fill="white"/>
<path d="M35.6004 17.0032H35.7598C35.5472 17.0032 35.3347 16.8438 35.3347 16.5781V15.7279C35.2816 15.7279 35.2284 15.7279 35.1753 15.7279V16.5781C35.1753 16.7906 35.3878 17.0032 35.6004 17.0032Z" fill="#E4E5E9"/>
<path d="M37.0882 16.525C37.0882 16.7375 36.9288 16.95 36.6631 16.95H36.8225C37.035 16.95 37.2476 16.7375 37.2476 16.525L37.1944 15.0903C37.1413 15.0903 37.0882 15.1434 37.035 15.1434L37.0882 16.525Z" fill="white"/>
<path d="M37.0881 16.525L37.0349 15.1434C36.5567 15.356 35.9191 15.5685 35.2815 15.6748V16.525C35.2815 16.7375 35.494 16.95 35.7066 16.95H36.6099C36.9287 16.95 37.0881 16.7906 37.0881 16.525Z" fill="white"/>
<path d="M32.5718 17.0032H32.4124C32.6249 17.0032 32.8374 16.7906 32.8374 16.5781V15.7279C32.8906 15.7279 32.9437 15.7279 32.9968 15.7279V16.5781C32.9968 16.8438 32.8374 17.0032 32.5718 17.0032Z" fill="#E4E5E9"/>
<path d="M31.084 16.6312C31.084 16.8438 31.2965 17.0563 31.5091 17.0563H31.3497C31.1371 17.0563 30.9246 16.8969 30.9246 16.6312L30.8715 15.1966C30.9246 15.1966 30.9777 15.2497 31.0309 15.2497L31.084 16.6312Z" fill="white"/>
<path d="M31.0839 16.6312L31.0308 15.2497C31.509 15.4623 32.0935 15.6217 32.7842 15.728V16.5781C32.7842 16.7907 32.6248 17.0032 32.3591 17.0032H31.4558C31.2964 17.0563 31.0839 16.8438 31.0839 16.6312Z" fill="white"/>
<path d="M37.3008 15.1435C37.3008 15.5154 35.8661 15.8342 34.1127 15.8873C32.3061 15.9405 30.8715 15.6748 30.8715 15.3029C30.8715 14.9309 32.3061 14.6121 34.0596 14.559C35.813 14.5058 37.3008 14.7715 37.3008 15.1435Z" fill="#57C5DC"/>
<path d="M71.4134 32.7843H55.2072C54.4633 32.7843 53.9851 32.8374 53.7726 32.9968C53.56 33.1562 53.5069 33.4219 53.5069 33.847C53.5069 36.1318 54.357 38.0978 56.0574 39.7981C57.7577 41.4984 59.8299 42.2954 62.2742 42.2954C64.0807 42.2954 65.9936 41.8172 68.0127 40.8608C70.0319 39.9044 71.2008 39.4261 71.5196 39.4261C72.1573 39.4261 72.6886 39.6387 73.1137 40.0106C73.5388 40.3826 73.7513 40.8608 73.7513 41.339C73.7513 42.1892 73.5388 42.9862 73.1137 43.7301C72.6886 44.474 71.8916 45.2179 70.8289 46.068C69.2348 47.3433 67.4282 48.2997 65.4091 48.9904C63.39 49.6812 61.2646 50 59.0329 50C53.8257 50 49.628 48.3528 46.3868 45.1116C43.1456 41.8704 41.5515 37.6727 41.5515 32.4655C41.5515 27.2051 43.1987 22.9012 46.5462 19.5537C49.8937 16.2062 54.1445 14.4527 59.2986 14.4527C63.7619 14.4527 67.4814 15.728 70.3507 18.2253C73.22 20.7226 74.6546 23.9639 74.6546 27.8427C74.6546 29.915 74.4421 31.1902 74.017 31.8278C73.5388 32.4655 72.6886 32.7843 71.4134 32.7843ZM54.5696 27.949H63.1243C63.6025 27.949 63.9213 27.8427 64.0807 27.6833C64.2933 27.5239 64.3464 27.2051 64.3464 26.7269C64.3464 24.7609 63.8151 23.1137 62.7524 21.8385C61.6897 20.5632 60.3613 19.9256 58.7141 19.9256C57.2263 19.9256 55.9511 20.6164 54.8884 21.9447C53.8257 23.3263 53.2943 24.9734 53.2943 26.9394C53.2943 27.2582 53.4006 27.5239 53.56 27.6302C53.7726 27.8427 54.0914 27.949 54.5696 27.949Z" fill="white"/>
<path d="M92.3485 17.2157V19.2349C92.3485 19.5537 92.4016 19.7662 92.4548 19.9256C92.5079 20.085 92.6142 20.1913 92.7204 20.1913C93.0392 20.1913 93.4643 19.8725 93.9425 19.2349C94.2082 18.8629 94.4207 18.5972 94.5802 18.4378C95.696 17.1626 96.9712 16.2593 98.3527 15.6748C99.7342 15.0903 101.381 14.8247 103.294 14.8247C107.651 14.8247 110.733 16.0468 112.646 18.4378C114.559 20.8289 115.515 24.814 115.515 30.2869V35.9192C115.515 38.4166 115.568 40.1169 115.622 41.0733C115.728 42.0298 115.834 42.6142 116.1 42.8799C116.206 43.0393 116.844 43.4113 117.906 43.9957C118.969 44.5802 119.554 45.3773 119.554 46.2806C119.554 47.3964 118.863 48.2465 117.481 48.6716C116.1 49.1498 113.602 49.3624 109.989 49.3624C106.323 49.3624 103.826 49.1498 102.444 48.6716C101.063 48.1934 100.372 47.3964 100.372 46.2806C100.372 45.271 101.063 44.4208 102.444 43.7832C102.975 43.5175 103.347 43.305 103.56 43.1456C103.879 42.8799 104.091 42.2423 104.251 41.339C104.357 40.4357 104.463 38.6291 104.463 35.9192C104.463 30.3401 104.038 26.78 103.241 25.186C102.444 23.5919 101.009 22.7949 98.8841 22.7949C96.5993 22.7949 94.899 23.7513 93.8363 25.7173C92.7736 27.6833 92.2422 30.7651 92.2422 35.0691C92.2422 37.5664 92.2953 39.4261 92.4016 40.5951C92.5079 41.7641 92.6673 42.508 92.8798 42.8268C92.9861 42.9862 93.6237 43.3581 94.6864 43.9957C95.7491 44.5802 96.2805 45.3773 96.2805 46.2806C96.2805 47.3964 95.5897 48.2465 94.2082 48.6716C92.8267 49.1498 90.3294 49.3624 86.7162 49.3624C83.103 49.3624 80.6057 49.1498 79.2242 48.6716C77.8426 48.1934 77.1519 47.3964 77.1519 46.2806C77.1519 45.271 77.8426 44.4208 79.2242 43.7832C79.7555 43.5175 80.1274 43.305 80.34 43.1456C80.6588 42.8799 80.9245 42.1892 81.0839 41.1796C81.2433 40.17 81.2964 37.7258 81.2964 33.9001C81.2964 29.7556 81.1901 27.0457 81.0307 25.7705C80.8713 24.4952 80.5525 23.6451 80.1274 23.3262C80.0212 23.2731 79.3836 23.0606 78.1615 22.6886C76.9393 22.3167 76.3549 21.5728 76.3549 20.5632C76.3549 20.0319 76.5674 19.5537 76.9925 19.0754C77.4176 18.5972 78.1083 18.1722 78.9585 17.7471C80.9245 16.8438 82.9436 16.0999 84.9096 15.5685C86.8756 15.0372 88.5759 14.7715 89.9574 14.7715C90.8076 14.7715 91.3921 14.9309 91.7109 15.2497C92.1891 15.6748 92.3485 16.3124 92.3485 17.2157Z" fill="white"/>
<path d="M145.855 47.5558V46.7056C145.855 46.3868 145.802 46.1211 145.749 46.0149C145.696 45.9086 145.59 45.8023 145.43 45.8023C145.165 45.8023 144.739 46.068 144.208 46.5462C144.049 46.7056 143.889 46.8119 143.836 46.9182C142.774 47.8746 141.551 48.6185 140.117 49.1498C138.735 49.6812 137.247 49.9469 135.653 49.9469C131.668 49.9469 128.268 48.2997 125.505 45.0584C122.742 41.8172 121.36 37.779 121.36 32.9437C121.36 30.3932 121.785 28.0553 122.688 25.8767C123.539 23.6982 124.867 21.7853 126.567 20.0319C128.215 18.3847 130.074 17.1626 132.04 16.3124C134.006 15.4623 136.132 15.0372 138.31 15.0372C140.808 15.0372 143.039 15.6748 144.952 16.9501C145.218 17.1626 145.43 17.2157 145.483 17.2157C145.59 17.2157 145.696 17.0563 145.749 16.6844C145.802 16.3124 145.855 15.6217 145.855 14.6652C145.855 12.4336 145.749 10.8927 145.537 10.0425C145.324 9.19235 145.005 8.661 144.474 8.44846C144.208 8.34219 143.836 8.23592 143.358 8.07651C141.817 7.5983 141.073 6.85441 141.073 5.79171C141.073 5.15409 141.339 4.62274 141.87 4.14453C142.402 3.66631 143.464 3.13496 145.005 2.44421C146.918 1.64718 148.671 1.0627 150.372 0.637618C152.072 0.212538 153.56 -1.90735e-06 154.835 -1.90735e-06C155.792 -1.90735e-06 156.429 0.212538 156.748 0.637618C157.067 1.0627 157.226 1.96599 157.226 3.29437C157.226 3.98512 157.173 6.96068 157.014 12.2742C156.854 17.5877 156.801 22.5292 156.801 27.152C156.801 33.1562 156.907 36.9288 157.067 38.5228C157.226 40.1169 157.545 41.0202 157.97 41.3921C158.076 41.4453 158.714 41.6578 159.936 42.0297C161.158 42.4017 161.743 43.0925 161.743 44.1551C161.743 44.6865 161.53 45.1647 161.105 45.6429C160.68 46.068 159.989 46.4931 159.086 46.865C157.12 47.8215 155.101 48.5654 153.135 49.0967C151.169 49.628 149.469 49.8937 148.087 49.8937C147.184 49.8937 146.599 49.7343 146.28 49.4155C146.015 49.0967 145.855 48.4591 145.855 47.5558ZM145.855 28.5866C145.855 25.8767 145.43 24.017 144.633 22.9543C143.836 21.8916 142.455 21.3603 140.542 21.3603C138.416 21.3603 136.716 22.2635 135.388 24.1233C134.113 25.983 133.422 28.4272 133.422 31.4559C133.422 34.7503 134.059 37.3539 135.388 39.2667C136.716 41.1796 138.416 42.136 140.595 42.136C142.295 42.136 143.571 41.6047 144.474 40.542C145.377 39.4793 145.802 37.9384 145.802 35.8661V28.5866H145.855Z" fill="white"/>
<path d="M184.006 28.8523V25.7704C184.006 23.6451 183.741 22.1573 183.209 21.3602C182.678 20.5632 181.775 20.1381 180.446 20.1381C179.065 20.1381 177.524 20.9352 175.824 22.5824C175.664 22.7418 175.558 22.848 175.452 22.9012C175.345 22.9543 175.239 23.0606 175.08 23.22C172.795 25.3985 170.723 26.4612 168.916 26.4612C167.8 26.4612 166.897 26.1424 166.206 25.5048C165.569 24.8672 165.197 24.017 165.197 22.9012C165.197 20.6164 166.791 18.5972 169.926 16.8438C173.061 15.0903 176.939 14.2402 181.562 14.2402C186.185 14.2402 189.586 15.1435 191.711 16.8969C193.836 18.6504 194.899 21.4665 194.899 25.3454C194.899 26.5143 194.846 28.0021 194.793 29.7556C194.74 31.509 194.687 32.7843 194.687 33.4219V38.2572C194.687 39.2136 194.74 39.9044 194.846 40.3294C194.952 40.7545 195.165 41.0733 195.43 41.2327C195.643 41.3921 196.387 41.6578 197.556 42.0829C198.725 42.4548 199.309 43.0393 199.309 43.8363C199.309 44.6334 199.044 45.3773 198.459 46.1211C197.875 46.8119 197.024 47.5558 195.802 48.2465C194.846 48.831 193.836 49.2561 192.88 49.5218C191.924 49.8406 191.02 50 190.17 50C188.948 50 187.779 49.3624 186.557 48.1403C185.388 46.9182 184.697 46.2805 184.591 46.2805C184.485 46.2805 184.166 46.4399 183.688 46.8119C180.871 48.9373 177.843 50 174.602 50C171.095 50 168.278 49.0436 166.153 47.1838C164.028 45.3241 162.965 42.7736 162.965 39.6918C162.965 36.1318 164.293 33.4219 167.003 31.4559C169.713 29.4899 173.486 28.5335 178.321 28.5335C179.118 28.5335 179.968 28.5866 180.871 28.6397C181.934 28.6397 182.944 28.746 184.006 28.8523ZM183.953 38.8417V33.6876C183.528 33.5813 183.103 33.475 182.678 33.4219C182.253 33.3688 181.775 33.3156 181.243 33.3156C179.224 33.3156 177.683 33.7938 176.621 34.6971C175.558 35.6004 175.027 36.9288 175.027 38.6291C175.027 40.1169 175.399 41.2327 176.196 42.0829C176.993 42.933 178.055 43.3581 179.437 43.3581C180.978 43.3581 182.094 42.9862 182.837 42.2423C183.581 41.4984 183.953 40.3294 183.953 38.8417Z" fill="white"/>
<path d="M204.623 35.7067C204.623 31.881 204.463 29.0117 204.198 27.0457C203.932 25.0797 203.507 23.8576 202.975 23.4325C202.869 23.3794 202.232 23.1668 201.009 22.7949C199.787 22.423 199.203 21.6791 199.203 20.6695C199.203 20.1381 199.415 19.6599 199.841 19.1817C200.266 18.7035 200.956 18.2784 201.806 17.8533C203.772 16.95 205.792 16.2062 207.811 15.6748C209.83 15.1435 211.53 14.8778 212.859 14.8778C213.549 14.8778 214.081 15.0372 214.453 15.3029C214.825 15.5685 215.09 15.9936 215.197 16.6312C215.356 17.2689 215.462 18.0127 215.515 18.916C215.568 19.8193 215.728 20.2976 215.994 20.2976C216.312 20.2976 216.791 19.9256 217.428 19.1286C217.588 18.916 217.747 18.7035 217.853 18.5972C218.863 17.322 219.872 16.3656 220.829 15.7811C221.785 15.1966 222.795 14.9309 223.911 14.9309C225.558 14.9309 226.886 15.5154 227.843 16.6844C228.852 17.8533 229.33 19.3943 229.33 21.3071C229.33 23.0074 228.852 24.4421 227.896 25.611C226.939 26.78 225.77 27.3114 224.336 27.3114C223.167 27.3114 221.945 26.78 220.723 25.7173C219.5 24.6546 218.597 24.1233 218.119 24.1233C217.163 24.1233 216.525 24.814 216.153 26.2487C215.781 27.6833 215.622 30.6589 215.622 35.2285C215.622 38.3103 215.675 40.2763 215.781 41.1796C215.887 42.0829 216.1 42.6674 216.365 42.9862C216.525 43.1456 217.216 43.5175 218.491 44.0489C219.766 44.5802 220.351 45.3773 220.351 46.3868C220.351 47.5027 219.607 48.3528 218.172 48.7779C216.737 49.2561 214.028 49.4686 210.149 49.4686C206.482 49.4686 203.932 49.2561 202.604 48.7779C201.222 48.2997 200.584 47.5027 200.584 46.3868C200.584 45.3773 201.275 44.5271 202.657 43.8895C203.188 43.6238 203.56 43.4113 203.772 43.2519C204.091 43.0393 204.304 42.4548 204.463 41.6047C204.57 40.7545 204.623 38.7885 204.623 35.7067Z" fill="white"/>
</svg>
