<svg width="70" height="70" viewBox="0 0 70 70" fill="none" xmlns="http://www.w3.org/2000/svg">
<rect width="70" height="70" fill="#EEEEEE"/>
<path d="M50.5556 19.4445H19.4445C18.8551 19.4445 18.2899 19.6786 17.8732 20.0953C17.4564 20.5121 17.2223 21.0773 17.2223 21.6667V48.3334C17.2223 48.9227 17.4564 49.488 17.8732 49.9047C18.2899 50.3214 18.8551 50.5556 19.4445 50.5556H50.5556C51.145 50.5556 51.7102 50.3214 52.127 49.9047C52.5437 49.488 52.7779 48.9227 52.7779 48.3334V21.6667C52.7779 21.0773 52.5437 20.5121 52.127 20.0953C51.7102 19.6786 51.145 19.4445 50.5556 19.4445ZM19.4445 48.3334V21.6667H50.5556V48.3334H19.4445Z" fill="#CCCCCC"/>
<path d="M24.9111 30.5555C25.5704 30.5555 26.2148 30.36 26.763 29.9938C27.3112 29.6275 27.7384 29.1069 27.9907 28.4978C28.243 27.8887 28.309 27.2185 28.1804 26.5719C28.0518 25.9253 27.7343 25.3314 27.2681 24.8652C26.8019 24.399 26.208 24.0815 25.5614 23.9529C24.9148 23.8243 24.2446 23.8903 23.6355 24.1426C23.0264 24.3949 22.5058 24.8221 22.1395 25.3703C21.7733 25.9185 21.5778 26.5629 21.5778 27.2222C21.5778 28.1063 21.9289 28.9541 22.5541 29.5792C23.1792 30.2044 24.027 30.5555 24.9111 30.5555ZM24.9111 25.4444C25.2632 25.4422 25.608 25.5446 25.9018 25.7386C26.1956 25.9326 26.4252 26.2095 26.5614 26.5342C26.6977 26.8588 26.7345 27.2166 26.6672 27.5622C26.5998 27.9078 26.4314 28.2256 26.1832 28.4753C25.935 28.725 25.6183 28.8955 25.2731 28.965C24.928 29.0345 24.57 28.9999 24.2445 28.8657C23.919 28.7315 23.6407 28.5036 23.4448 28.211C23.249 27.9184 23.1444 27.5743 23.1444 27.2222C23.1473 26.7546 23.3344 26.3069 23.6651 25.9762C23.9958 25.6455 24.4434 25.4585 24.9111 25.4555V25.4444Z" fill="#CCCCCC"/>
<path d="M40.3111 32.0778L34.3111 38.0778L29.8666 33.6333C29.6585 33.4264 29.3769 33.3102 29.0833 33.3102C28.7898 33.3102 28.5082 33.4264 28.3 33.6333L21.5778 40.4444V43.5889L29.1222 36.0444L32.7778 39.6444L28.6111 43.8111H31.6666L41.0555 34.4222L48.3333 41.6667V38.5333L41.8778 32.0778C41.6696 31.8708 41.388 31.7547 41.0944 31.7547C40.8009 31.7547 40.5193 31.8708 40.3111 32.0778Z" fill="#CCCCCC"/>
</svg>
