<svg xmlns="http://www.w3.org/2000/svg" viewBox="0 0 221.1 513.74"><defs><style>.cls-1{fill:#e1bf8c;}.cls-2{fill:#daae79;}.cls-3{fill:#978074;}</style></defs><g id="Layer_2" data-name="Layer 2"><g id="Layer_1-2" data-name="Layer 1"><path class="cls-1" d="M55.42,456.14a4.22,4.22,0,0,0-4.22,4.22v34.41a4.22,4.22,0,0,0,8.44,0V460.36A4.22,4.22,0,0,0,55.42,456.14Z"/><path class="cls-1" d="M166.77,456.14a4.22,4.22,0,0,0-4.22,4.22v34.41a4.22,4.22,0,1,0,8.44,0V460.36A4.22,4.22,0,0,0,166.77,456.14Z"/><rect class="cls-1" x="101.69" y="26.49" width="17.73" height="384.95"/><path class="cls-2" d="M129.43,24.86,117.34,3.92a7.84,7.84,0,0,0-13.58,0L91.67,24.86a7.84,7.84,0,0,0,6.79,11.76h24.18A7.84,7.84,0,0,0,129.43,24.86Z"/><path class="cls-2" d="M216.47,399.87l-30.1-19.45a10.13,10.13,0,0,0-5.5-1.62h-4.14a10.12,10.12,0,0,0-10.13,10.13V389H54.5v-.05A10.12,10.12,0,0,0,44.37,378.8H40.23a10.13,10.13,0,0,0-5.5,1.62L4.63,399.87a10.14,10.14,0,0,0,0,17l30.1,19.44a10.14,10.14,0,0,0,5.5,1.63h4.14a9.05,9.05,0,0,0,1.06-.11V438H180.87a10.14,10.14,0,0,0,5.5-1.63l30.1-19.44A10.13,10.13,0,0,0,216.47,399.87Z"/><path class="cls-2" d="M186.61,343.84l-21.62-14a7.23,7.23,0,0,0-3.94-1.16h-3a7.28,7.28,0,0,0-7.28,7.27v0H70.31v0A7.28,7.28,0,0,0,63,328.71h-3a7.26,7.26,0,0,0-4,1.16l-21.61,14a7.27,7.27,0,0,0,0,12.22l21.61,14a7.27,7.27,0,0,0,4,1.17h3a6.31,6.31,0,0,0,.76-.08v.08h97.26A7.24,7.24,0,0,0,165,370l21.62-14A7.28,7.28,0,0,0,186.61,343.84Z"/><path class="cls-2" d="M186.61,290l-21.62-14a7.24,7.24,0,0,0-3.94-1.17h-3a7.28,7.28,0,0,0-7.28,7.28v0H70.31v0A7.28,7.28,0,0,0,63,274.9h-3a7.27,7.27,0,0,0-4,1.17L34.5,290a7.27,7.27,0,0,0,0,12.22l21.61,14a7.26,7.26,0,0,0,4,1.16h3c.26,0,.51-.05.76-.07v.07h97.26a7.23,7.23,0,0,0,3.94-1.16l21.62-14A7.28,7.28,0,0,0,186.61,290Z"/><path class="cls-2" d="M180.56,242.07l-19.89-12.86a6.73,6.73,0,0,0-3.64-1.07h-2.74a6.69,6.69,0,0,0-6.69,6.7v0H73.51v0a6.7,6.7,0,0,0-6.7-6.7H64.07a6.67,6.67,0,0,0-3.63,1.07l-19.9,12.86a6.7,6.7,0,0,0,0,11.25l19.9,12.85a6.67,6.67,0,0,0,3.63,1.07h2.74a5.35,5.35,0,0,0,.7-.07v.07H157a6.73,6.73,0,0,0,3.64-1.07l19.89-12.85A6.7,6.7,0,0,0,180.56,242.07Z"/><path class="cls-2" d="M174.51,196.88l-18.17-11.75a6.11,6.11,0,0,0-3.32-1h-2.51a6.12,6.12,0,0,0-6.11,6.12v0H76.71v0a6.12,6.12,0,0,0-6.12-6.12H68.08a6.13,6.13,0,0,0-3.32,1L46.59,196.88a6.12,6.12,0,0,0,0,10.28L64.76,218.9a6.13,6.13,0,0,0,3.32,1h2.51c.22,0,.42,0,.64-.06v.06H153a6.11,6.11,0,0,0,3.32-1l18.17-11.74A6.12,6.12,0,0,0,174.51,196.88Z"/><path class="cls-2" d="M170,155.25l-16.89-10.92a5.71,5.71,0,0,0-3.08-.91h-2.33a5.68,5.68,0,0,0-5.68,5.69v0H79.1v0a5.68,5.68,0,0,0-5.68-5.69H71.09a5.71,5.71,0,0,0-3.08.91L51.12,155.25a5.68,5.68,0,0,0,0,9.54L68,175.71a5.71,5.71,0,0,0,3.08.91h2.33a5.61,5.61,0,0,0,.59-.06v.06h76a5.71,5.71,0,0,0,3.08-.91L170,164.79A5.67,5.67,0,0,0,170,155.25Z"/><path class="cls-2" d="M160.78,117.82l-14.27-9.22a4.77,4.77,0,0,0-2.61-.77h-2a4.8,4.8,0,0,0-4.8,4.8v0H84v0a4.8,4.8,0,0,0-4.8-4.8h-2a4.71,4.71,0,0,0-2.6.77l-14.28,9.22a4.8,4.8,0,0,0,0,8.07l14.28,9.22a4.79,4.79,0,0,0,2.6.77h2a4.23,4.23,0,0,0,.5,0v0H143.9a4.85,4.85,0,0,0,2.61-.77l14.27-9.22A4.8,4.8,0,0,0,160.78,117.82Z"/><path class="cls-2" d="M157.13,83.45,143.9,74.9a4.5,4.5,0,0,0-2.42-.71h-1.83a4.45,4.45,0,0,0-4.45,4.45v0H85.9v0a4.45,4.45,0,0,0-4.45-4.45H79.62a4.49,4.49,0,0,0-2.41.71L64,83.45a4.46,4.46,0,0,0,0,7.49l13.24,8.55a4.41,4.41,0,0,0,2.41.71h1.83c.16,0,.31,0,.46,0v0h59.57a4.42,4.42,0,0,0,2.42-.71l13.23-8.55A4.46,4.46,0,0,0,157.13,83.45Z"/><path class="cls-2" d="M147.31,52.45,136.86,45.7a3.49,3.49,0,0,0-1.91-.56h-1.43A3.51,3.51,0,0,0,130,48.65v0H91.1v0a3.51,3.51,0,0,0-3.51-3.51H86.15a3.49,3.49,0,0,0-1.91.56L73.79,52.45a3.51,3.51,0,0,0,0,5.9L84.24,65.1a3.5,3.5,0,0,0,1.91.57h1.44c.12,0,.24,0,.36,0v0h47a3.5,3.5,0,0,0,1.91-.57l10.45-6.75A3.51,3.51,0,0,0,147.31,52.45Z"/><rect class="cls-1" x="66.93" y="456.46" width="87.23" height="42.21" rx="3.42"/><path class="cls-1" d="M173.57,437.45h-126a12,12,0,1,0,0,24.08h126a12,12,0,1,0,0-24.08Z"/><rect class="cls-3" x="35.49" y="496.35" width="150.11" height="17.39" rx="1.69"/></g></g></svg>