<svg xmlns="http://www.w3.org/2000/svg" viewBox="0 0 492.01 276.22"><defs><style>.cls-1{fill:#ac9892;}.cls-2{fill:#978074;}.cls-3{fill:#80716d;}.cls-4{fill:#e1bf8c;}.cls-5{fill:#daae79;}</style></defs><g id="Layer_2" data-name="Layer 2"><g id="Layer_1-2" data-name="Layer 1"><path class="cls-1" d="M11.4,154.35H386.58A11.39,11.39,0,0,1,398,165.74v74.09a11.4,11.4,0,0,1-11.39,11.4H79.78a11.4,11.4,0,0,1-11.39-11.4V188.54A11.4,11.4,0,0,0,57,177.14H11.4a11.4,11.4,0,1,1,0-22.79Z"/><path class="cls-2" d="M58.25,179.05l7.37-.21a11,11,0,0,1,7.19,2.39l17.06,13.5A38.21,38.21,0,0,0,113,203l71.37,1a11.07,11.07,0,0,0,6.63-2.09l19-13.71A38.09,38.09,0,0,1,231.61,181l153-2.75a11.07,11.07,0,0,1,11.27,11l.47,60.77a11.07,11.07,0,0,1-10.91,11.16L83.08,266a11.08,11.08,0,0,1-10.51-7.09L64.87,239a11.56,11.56,0,0,1-.46-1.52l-9-39.18a10.23,10.23,0,0,0-6.93-7.17c-.59-.21-1-.52-1-1A11.08,11.08,0,0,1,58.25,179.05Z"/><path class="cls-3" d="M66.86,240.5l158.33-3.37A34.31,34.31,0,0,0,238.92,234l54.15-25.07a37.67,37.67,0,0,1,16.19-3.47l45.84.49a12.91,12.91,0,0,0,8.14-2.78l48.46-38.46a22.45,22.45,0,0,1,14.15-4.86l43.89.37a22.45,22.45,0,0,1,11.56,41.59l-11.09,6.8a12.88,12.88,0,0,0-6.14,10.84l-.3,29.62a26.3,26.3,0,0,1-26.21,26L77.9,276.22a12.84,12.84,0,0,1-8.8-3.45l-10.74-10a12.89,12.89,0,0,1-4.09-9h0A12.88,12.88,0,0,1,66.86,240.5Z"/><rect class="cls-4" x="274.88" y="90.71" width="71.24" height="35.14" rx="2.69" transform="translate(620.99 216.56) rotate(-180)"/><rect class="cls-5" x="250.66" y="124.43" width="119.68" height="30.39" rx="12.11"/><path class="cls-5" d="M225,77l76.61-50.2a16.25,16.25,0,0,1,17.85,0L396,77c13.53,8.87,7.25,29.9-8.93,29.9H233.89C217.71,106.85,211.43,85.82,225,77Z"/><path class="cls-5" d="M310.5,0a3.34,3.34,0,0,1,3.32,3.32v26.6a3.33,3.33,0,0,1-6.65,0V3.32A3.34,3.34,0,0,1,310.5,0Z"/></g></g></svg>