<svg xmlns="http://www.w3.org/2000/svg" viewBox="0 0 303.58 202.84"><defs><style>.cls-1{fill:#fff;}.cls-2{fill:#ac9892;}.cls-3{fill:#dcae79;}.cls-4{fill:#e1bf8c;}</style></defs><g id="Layer_2" data-name="Layer 2"><g id="Layer_1-2" data-name="Layer 1"><line class="cls-1" x1="0.43" y1="45.34" y2="45.34"/><path class="cls-2" d="M298.9,193.49H18.21a4.68,4.68,0,1,0,0,9.35H298.9a4.68,4.68,0,1,0,0-9.35Z"/><path class="cls-3" d="M187.43,142.27,188,8.89C188-.51,199.68-3.45,203.53,5l54.84,120a9.6,9.6,0,0,1,.86,4v4.47c0,4.92,3.67,8.91,8.21,8.91h22.5c4.53,0,8.21,4,8.21,8.91V185c0,4.92-3.68,8.91-8.21,8.91H195.21c-4.54,0-8.21-4-8.21-8.91"/><path class="cls-3" d="M129.14,8.89c0-9.4-11.72-12.34-15.56-3.93l-54.84,120a9.44,9.44,0,0,0-.86,4v4.47c0,4.92-3.67,8.91-8.21,8.91H27.17c-4.53,0-8.21,4-8.21,8.91V185c0,4.92,3.68,8.91,8.21,8.91H121.9c4.54,0,8.21-4,8.21-8.91V142.27"/><rect class="cls-4" x="18.96" y="142.41" width="111.15" height="51.46" rx="6.89"/><rect class="cls-4" x="187" y="142.41" width="111.15" height="51.46" rx="5.17"/></g></g></svg>