<svg width="176" height="312" viewBox="0 0 176 312" fill="none" xmlns="http://www.w3.org/2000/svg">
<g clip-path="url(#clip0)">
<path d="M48.3653 242.706C46.0613 242.907 43.5569 242.86 40.9177 242.292C32.187 240.482 25.0283 234.186 19.7382 223.732C17.5883 219.571 19.2836 214.452 23.568 212.391C27.7561 210.249 32.9036 211.929 34.9726 216.186C36.9222 220.098 40.2048 224.959 44.4777 225.827C49.0241 226.761 53.8056 223.236 53.7979 223.148C57.4658 220.165 62.779 220.676 65.7765 224.319C68.7741 227.962 68.254 233.244 64.586 236.228C63.7538 236.922 57.227 241.931 48.3653 242.706Z" fill="#FFE98E"/>
<path d="M141.22 232.363C138.65 232.588 136.855 232.479 136.404 232.429L137.88 215.614L137.791 215.622C137.88 215.614 143.886 215.888 147.161 212.495C150.105 209.397 150.039 203.545 149.485 199.245C148.899 194.592 152.097 190.318 156.778 189.731C161.459 189.144 165.755 192.318 166.341 196.971C167.898 208.639 165.574 217.807 159.437 224.202C153.623 230.213 146.094 231.937 141.22 232.363Z" fill="#FFE98E"/>
<path d="M87.8609 137.892C86.7436 133.286 88.593 136.053 85.4335 128.519C82.1855 120.992 79.3074 111.57 80.4555 102.239C81.6037 92.9079 89.6408 88.832 96.5221 85.8336C103.411 82.9233 113.579 87.8915 118.761 84.8643C123.935 81.7489 118.591 82.9265 118.314 79.7556C118.037 76.5847 124.436 81.3501 132.628 76.9945C143.805 71.0463 141.532 53.2279 132.897 51.4982C137.347 50.31 149.01 41.7455 144.198 30.6284C140.614 22.3326 135.008 12.35 119.489 10.5126C103.962 8.5871 101.511 25.4874 101.511 25.4874C101.511 25.4874 89.6059 18.0085 83.1253 27.6285C76.6448 37.2485 86.724 46.3073 86.724 46.3073C86.724 46.3073 82.5128 44.1018 79.731 51.0906C76.9338 57.9032 83.6148 60.7801 84.2235 61.6144C84.2235 61.6144 86.674 63.0864 87.8722 63.5141C87.8722 63.5141 83.9962 70.2435 85.5374 75.6115C87.1595 80.8837 89.1129 81.7778 89.1129 81.7778C89.1129 81.7778 85.3101 82.1993 83.1332 74.668C80.9563 67.1368 85.5643 64.6923 85.5643 64.6923C80.5671 61.668 79.207 59.3906 76.537 60.5118C72.6648 62.1819 71.3934 63.9795 71.3934 63.9795C71.3934 63.9795 69.4207 53.679 62.0616 55.2991C54.6949 56.8312 50.5838 63.9362 51.47 69.9828C52.3562 76.0293 57.4305 75.8517 57.4305 75.8517C57.4305 75.8517 54.4252 78.2447 53.5391 80.3636C52.6529 82.4825 55.1612 85.6358 55.1612 85.6358C55.1612 85.6358 55.1612 85.6358 55.2845 89.0864C55.4078 92.5371 62.6127 97.3208 62.6127 97.3208C62.6127 97.3208 61.7265 99.4397 65.121 102.515C68.4191 105.511 69.5634 115.529 72.6457 120.141C75.7358 124.841 77.1691 122.851 77.1691 122.851C77.1691 122.851 77.2269 126.574 78.9106 130.509C80.5943 134.445 82.9292 132.554 84.8441 137.091C86.759 141.627 91.3555 152.319 91.3555 152.319C91.3555 152.319 88.986 142.586 87.8609 137.892ZM111.067 18.3499C108.832 19.3442 107.603 20.6055 107.603 20.6055C107.603 20.6055 108.874 16.7666 111.209 16.9173C113.633 17.0603 114.935 19.6978 114.935 19.6978C114.935 19.6978 113.301 17.3555 111.067 18.3499ZM90.2108 27.9849C95.5972 24.2298 97.7548 28.4787 97.7548 28.4787C100.302 25.9483 100.829 28.9198 100.829 28.9198C100.829 28.9198 102.556 28.2362 104.305 29.8583C106.15 31.5607 102.425 34.9043 102.425 34.9043C102.425 34.9043 103.623 33.2907 101.307 32.3394C99.0879 31.4685 99.1766 33.5022 99.1766 33.5022C99.1766 33.5022 99.1611 31.2846 97.1268 30.4863C95.0925 29.688 94.7765 32.2008 94.7765 32.2008C94.0984 30.5737 89.9566 31.2024 89.2669 34.5466C88.5772 37.8909 90.5461 43.044 90.5461 43.044C90.5461 43.044 84.8245 31.7401 90.2108 27.9849ZM131.599 45.8427C131.599 45.8427 138.141 43.0514 137.771 38.8236C137.393 34.5076 135.155 30.3544 135.155 30.3544C135.155 30.3544 139.94 34.0185 139.185 39.6762C138.341 45.3415 131.599 45.8427 131.599 45.8427ZM119.088 69.2147C117.339 71.6754 115.301 69.8123 116.076 71.5197C116.858 73.3151 127.476 74.25 130.062 70.1186C130.062 70.1186 129.649 72.551 124.54 73.353C119.431 74.155 112.959 73.6562 113.61 69.8716C114.357 66.1672 120.845 66.8421 119.088 69.2147ZM62.3044 69.3012C60.0119 62.4901 63.9688 59.7475 63.9688 59.7475C63.6683 60.3951 60.9982 63.5576 63.5758 69.5449C66.1535 75.5323 68.9969 75.3723 68.9969 75.3723C68.9969 75.3723 64.5083 76.12 62.3044 69.3012ZM66.5965 79.5763C63.4526 76.3011 58.7289 77.4244 58.7289 77.4244C58.7289 77.4244 61.7611 74.319 66.4424 77.8146C71.2123 81.3025 67.0628 90.0086 67.0628 90.0086C67.0628 90.0086 69.7328 82.7633 66.5965 79.5763ZM78.4095 77.8327C74.7069 73.2751 72.3836 76.3185 72.3836 76.3185C72.3836 76.3185 73.447 74.1841 75.4197 74.2778C77.3924 74.3715 79.4691 74.6336 81.1374 78.3928C82.7171 82.1599 79.4345 89.5475 79.4345 89.5475C79.4345 89.5475 82.2008 82.3825 78.4095 77.8327ZM107.16 67.5957C107.695 60.4484 114.927 62.4784 115.521 65.1779C116.025 67.8851 110.161 64.1379 109.275 66.2568C108.478 68.368 110.674 73.0573 113.174 74.0811C115.675 75.105 124.775 77.0602 125.889 74.4776C125.889 74.4776 136.958 75.4618 136.049 63.0269C136.049 63.0269 138.18 67.9882 133.984 72.083C129.788 76.1778 126.49 75.2238 126.49 75.2238C126.49 75.2238 124.71 77.3322 119.3 76.7404C113.98 76.1408 106.705 74.6471 107.16 67.5957ZM101.442 81.853C101.442 81.853 114.245 82.2417 113.702 81.1354C113.248 80.0213 113.822 79.4386 113.822 79.4386C113.822 79.4386 116.299 80.1981 115.501 82.3093C114.777 84.2365 101.442 81.853 101.442 81.853Z" fill="#FFF6D2"/>
<path d="M112.454 28.0804C112.454 28.0804 119.493 21.7843 122.421 28.7172C125.342 35.5621 119.635 44.8481 119.635 44.8481C119.635 44.8481 121.362 44.1646 121.207 48.527C121.15 52.9699 111.475 55.6801 111.475 55.6801C111.475 55.6801 114.388 58.3542 110.088 60.2392C105.78 62.0362 97.4467 59.6589 97.4467 59.6589C97.4467 59.6589 105.141 60.8496 107.06 56.2439C108.978 51.6383 105.322 51.692 105.322 51.692C105.322 51.692 113.972 51.5565 114.457 46.8987C114.95 42.3291 110.358 42.9084 110.358 42.9084C110.358 42.9084 114.527 41.5674 115.324 39.4562C116.21 37.3373 117.547 33.2264 113.76 31.7826C110.061 30.3311 107.846 32.5663 107.846 32.5663C107.846 32.5663 104.189 26.4959 106.424 25.5016C108.755 24.5876 111.051 24.2979 112.454 28.0804Z" fill="#F2E9C4"/>
<path d="M74.5953 113.846C70.8888 108.224 70.176 105.18 69.4902 99.3817C68.8044 93.5839 64.0075 94.8911 63.3294 93.2641C62.6436 91.549 64.9823 88.6817 63.0366 87.8757C61.0022 87.0773 58.3899 81.7143 57.2726 79.1494C56.1552 76.5845 60.4589 71.6815 60.4589 71.6815C60.4589 71.6815 58.0046 71.1862 57.4189 64.492C57.0336 60.088 62.682 57.2862 66.5773 55.8803C65.3559 55.1884 63.8918 54.7839 62.054 55.211C54.6872 56.7431 50.5762 63.8481 51.4624 69.8947C52.3486 75.9413 57.4228 75.7636 57.4228 75.7636C57.4228 75.7636 54.4176 78.1566 53.5314 80.2755C52.6453 82.3944 55.1535 85.5477 55.1535 85.5477C55.1535 85.5477 55.1535 85.5477 55.2768 88.9983C55.4001 92.449 62.6051 97.2327 62.6051 97.2327C62.6051 97.2327 61.7189 99.3516 65.1133 102.427C68.4114 105.423 69.5557 115.441 72.6381 120.053C75.7281 124.752 77.1614 122.763 77.1614 122.763C77.1614 122.763 77.2192 126.486 78.9029 130.421C80.5867 134.357 82.9215 132.466 84.8364 137.003C86.5279 141.026 90.4463 150.091 91.2284 151.887C89.1479 146.477 82.3243 128.702 80.864 125.279C79.0917 121.352 78.3096 119.556 74.5953 113.846Z" fill="#F2E9C4"/>
<path d="M99.2075 82.8473C91.964 81.7059 87.8414 87.6581 87.8414 87.6581C87.8414 87.6581 89.0204 82.7622 87.3829 83.438C85.6568 84.1215 80.3437 87.6928 81.4688 90.3458C82.5861 92.9107 79.3381 89.4671 77.7276 93.5133C76.1094 97.4713 76.6913 123.514 87.4062 134.736C87.4178 133.848 87.2521 132.975 85.3526 128.614C82.1046 121.088 79.2264 111.666 80.3746 102.335C81.5227 93.0037 89.5598 88.9279 96.4411 85.9294C99.3693 84.6969 102.96 84.9153 106.382 85.2373C103.954 84.0296 101.373 83.1016 99.2075 82.8473Z" fill="#F2E9C4"/>
<path d="M93.0429 91.9958C87.9687 94.2148 83.3491 101.631 86.0461 114.087C87.2483 119.662 89.2248 124.903 91.2091 130.232C94.6112 139.52 92.9506 133.808 96.2642 155.351C90.3383 132.527 94.8039 143.763 89.7411 130.804C87.6528 125.307 85.6917 120.242 84.5628 114.483C82.0314 100.858 87.8107 93.4299 93.0429 91.9958Z" fill="white"/>
<path d="M80.9526 139.561C85.9653 142.762 89.5793 153.451 91.4403 159.412C86.4508 150.352 85.3103 143.44 80.9526 139.561Z" fill="white"/>
<path d="M130.743 9.52796C130.743 9.52796 129.788 4.73003 124.698 2.69017C119.608 0.650322 111.614 8.27267 111.614 8.27267C111.614 8.27267 124.078 2.74445 130.743 9.52796Z" fill="#F2E9C4"/>
<path d="M100.271 21.5133C100.271 21.5133 93.2778 18.1311 89.8217 20.4749C86.3657 22.8186 85.7223 22.6086 85.0441 20.9816C84.366 19.3546 85.8918 18.4223 86.4081 18.1996C87.013 17.9692 87.013 17.9692 87.013 17.9692C87.013 17.9692 86.2963 15.9018 87.8452 15.2337C89.4827 14.5579 90.6694 15.8742 90.6694 15.8742C90.6694 15.8742 91.0046 14.6023 92.2991 15.1103C93.5937 15.6184 100.271 21.5133 100.271 21.5133Z" fill="#F2E9C4"/>
<path d="M133.945 10.4018C133.945 10.4018 134.4 9.47447 136.527 11.3298C138.565 13.1928 138.388 13.2083 137.867 14.4076C137.355 15.695 133.359 11.8731 133.945 10.4018Z" fill="#F2E9C4"/>
<path d="M139.239 52.5408C139.239 52.5408 140.133 54.5927 141.37 57.5022C142.599 60.3236 141.744 62.7948 141.744 62.7948C141.744 62.7948 144.425 60.7851 144.321 58.5753C144.313 56.4459 147.076 56.3817 145.623 53.0473C144.171 49.713 139.239 52.5408 139.239 52.5408Z" fill="#F2E9C4"/>
<path d="M117.556 266.03L113.268 297.647L103.608 298.492L103.466 267.263L117.556 266.03Z" fill="#E2CC6F"/>
<path d="M100.896 267.488L100.33 298.779L90.6704 299.624L85.2993 268.852L100.896 267.488Z" fill="#FFE98E"/>
<path d="M117.34 300.309L113.268 297.647L103.697 298.484L103.161 301.549L117.34 300.309Z" fill="#E2CC6F"/>
<path d="M104.402 301.441L100.33 298.779L90.759 299.617L90.2234 302.681L104.402 301.441Z" fill="#FFE98E"/>
<path d="M102.541 287.314C102.541 287.314 51.5903 296.919 47.7025 245.338C43.8148 193.756 74.295 165.528 76.0712 162.355C77.8474 159.182 78.6141 156.718 78.1363 155.34C77.7472 153.954 80.3826 153.457 83.75 153.162C87.1174 152.868 102.271 151.542 102.271 151.542C102.271 151.542 104.155 151.644 103.92 154.06C103.596 156.485 107.966 161.517 111.163 163.367C114.354 165.13 152.964 201.248 150.745 245.287C148.525 289.326 102.541 287.314 102.541 287.314Z" fill="url(#paint0_linear)"/>
<path d="M122.553 248.641C122.553 248.641 121.459 250.423 118.473 252.016L118.843 256.243C118.904 256.948 118.419 257.523 117.71 257.585L117.267 257.624L114.608 257.856L114.165 257.895C113.456 257.957 112.878 257.475 112.817 256.771L112.601 254.304L112.512 254.312L112.728 256.778C112.79 257.483 112.304 258.058 111.595 258.12L111.064 258.167L108.494 258.391L107.962 258.438C107.253 258.5 106.675 258.018 106.614 257.313L106.39 254.759C101.166 254.24 98.0832 251.669 98.0832 251.669C98.0832 251.669 95.4671 265.655 111.595 264.244C127.554 262.937 122.553 248.641 122.553 248.641Z" fill="#32A597"/>
<path d="M107.874 258.446L108.405 258.399C107.696 258.461 107.118 257.979 107.057 257.274L106.841 254.808C106.664 254.824 106.479 254.751 106.302 254.767L106.525 257.321C106.587 258.026 107.165 258.508 107.874 258.446Z" fill="#E6E7E8"/>
<path d="M112.108 256.833C112.169 257.537 111.684 258.112 110.975 258.174L111.507 258.128C112.216 258.066 112.701 257.491 112.639 256.786L112.424 254.32C112.246 254.335 112.077 254.439 111.9 254.454L112.108 256.833Z" fill="white"/>
<path d="M112.108 256.833L111.9 254.454C111.811 254.462 111.634 254.478 111.553 254.573C109.885 254.897 108.282 254.948 106.849 254.896L107.064 257.363C107.126 258.067 107.704 258.549 108.413 258.487L110.983 258.262C111.684 258.112 112.17 257.537 112.108 256.833Z" fill="white"/>
<path d="M114.077 257.903L114.52 257.864C113.811 257.926 113.233 257.444 113.171 256.739L112.948 254.185C112.77 254.201 112.69 254.296 112.512 254.312L112.728 256.778C112.79 257.483 113.456 257.957 114.077 257.903Z" fill="#E6E7E8"/>
<path d="M118.311 256.29C118.373 256.995 117.887 257.57 117.178 257.632L117.621 257.593C118.33 257.531 118.816 256.956 118.754 256.251L118.384 252.023C118.215 252.127 118.134 252.223 117.956 252.238L118.311 256.29Z" fill="white"/>
<path d="M118.311 256.29L117.964 252.326C116.689 253.059 114.963 253.743 112.948 254.185L113.171 256.74C113.233 257.444 113.811 257.926 114.52 257.864L117.178 257.632C117.887 257.569 118.373 256.994 118.311 256.29Z" fill="white"/>
<path d="M111.006 242.196C111.699 243.999 113.506 245.261 115.544 245.082C117.937 244.873 119.806 242.757 119.59 240.291C119.528 239.586 119.289 238.897 118.881 238.311L111.006 242.196Z" fill="#32A597"/>
<path d="M108.258 242.436C107.889 244.332 106.328 245.889 104.29 246.067C101.897 246.276 99.6896 244.517 99.4739 242.051C99.4122 241.346 99.5278 240.626 99.8283 239.978L108.258 242.436Z" fill="#32A597"/>
<path d="M81.9049 280.066C79.7318 279.724 77.7129 279.102 75.6709 278.215C73.6366 277.417 71.6677 276.347 69.8684 275.173C67.9805 274.007 66.2544 272.649 64.6015 271.107L63.4302 269.967C63.2375 269.806 63.0372 269.558 62.8445 269.397L62.2512 268.739L61.1608 267.503C60.7678 267.093 60.4557 266.588 60.0627 266.179C57.2578 262.696 55.1156 258.624 53.586 254.408C53.3625 253.895 53.139 253.382 53.0042 252.862L52.5033 251.219L52.0024 249.577C51.8676 249.056 51.725 248.447 51.6788 247.919L51.3551 246.261C51.332 245.996 51.2203 245.74 51.1971 245.476L51.1278 244.683L50.7463 241.344C50.1453 232.432 51.251 223.637 53.74 215.343C54.0983 214.335 54.3603 213.247 54.7186 212.239L55.2079 210.688C55.3389 210.144 55.5662 209.68 55.7858 209.128L56.9494 206.098L57.535 204.626C57.7624 204.163 57.982 203.611 58.2093 203.147L59.5578 200.189C60.0124 199.262 60.4594 198.246 61.0026 197.311C62.0005 195.449 63.087 193.579 64.1736 191.709C62.0391 199.972 59.8083 208.155 58.2941 216.364C56.7799 224.574 56.071 232.801 56.6837 240.824L57.0343 243.811L57.1036 244.604C57.1268 244.868 57.2385 245.125 57.2539 245.301L57.5621 246.783C57.697 247.303 57.7355 247.744 57.7818 248.272L58.1786 249.746L58.5755 251.221C58.7103 251.741 58.8375 252.174 58.9723 252.695C59.2343 253.648 59.4963 254.601 59.9356 255.539C60.2862 256.485 60.6368 257.431 61.0683 258.28L61.7233 259.643C61.9391 260.068 62.1548 260.493 62.4669 260.998L63.2105 262.353C63.4263 262.778 63.7307 263.195 64.0351 263.612C64.3395 264.03 64.5552 264.454 64.8596 264.872L65.7727 266.123L66.1811 266.709C66.2852 266.877 66.4855 267.126 66.6782 267.286L67.5836 268.45C68.882 270.022 70.2614 271.499 71.8103 272.873C74.6421 275.643 78.0712 278.094 81.9049 280.066Z" fill="url(#paint1_linear)"/>
</g>
<defs>
<linearGradient id="paint0_linear" x1="103.173" y1="287.575" x2="91.3589" y2="152.534" gradientUnits="userSpaceOnUse">
<stop stop-color="#FFE98E"/>
<stop offset="1" stop-color="#F9C07D"/>
</linearGradient>
<linearGradient id="paint1_linear" x1="68.0622" y1="281.279" x2="60.2581" y2="192.079" gradientUnits="userSpaceOnUse">
<stop stop-color="#FFE98E"/>
<stop offset="0.4025" stop-color="#F9C37E"/>
<stop offset="1" stop-color="#F9C07D"/>
</linearGradient>
<clipPath id="clip0">
<rect width="149" height="300" fill="white" transform="translate(0.765869 13.0005) rotate(-5)"/>
</clipPath>
</defs>
</svg>
