<svg xmlns="http://www.w3.org/2000/svg" viewBox="0 0 466.42 253.97"><defs><style>.cls-1{fill:#f3dce5;}.cls-2{fill:#f1c8d5;}.cls-3{fill:#b7dfec;}.cls-4{fill:#b7dce8;}</style></defs><g id="Layer_2" data-name="Layer 2"><g id="Layer_1-2" data-name="Layer 1"><path class="cls-1" d="M403.6,208.91,291.65,15a30,30,0,0,0-52,0l-112,193.91a30,30,0,0,0,26,45H377.62A30,30,0,0,0,403.6,208.91Z"/><path class="cls-2" d="M352.54,209l-112-193.9a30,30,0,0,0-52,0L76.66,209a30,30,0,0,0,26,45h223.9A30,30,0,0,0,352.54,209Z"/><path class="cls-3" d="M162.28,100h-3.35c0-.83.07-1.68.07-2.53A44.17,44.17,0,0,0,78.06,73,30.65,30.65,0,0,0,29,97.47c0,.86,0,1.7.1,2.53H25.68A25.69,25.69,0,0,0,0,125.69H0a25.68,25.68,0,0,0,25.68,25.68h136.6A25.68,25.68,0,0,0,188,125.69h0A25.69,25.69,0,0,0,162.28,100Z"/><path class="cls-4" d="M441,173.84h-3.31c.05-.83.07-1.66.07-2.5a43.74,43.74,0,0,0-80.15-24.23A30.35,30.35,0,0,0,309,171.34c0,.84,0,1.68.11,2.5h-3.35a25.44,25.44,0,0,0-25.43,25.44h0a25.44,25.44,0,0,0,25.43,25.43H441a25.43,25.43,0,0,0,25.43-25.43h0A25.43,25.43,0,0,0,441,173.84Z"/></g></g></svg>