<svg xmlns="http://www.w3.org/2000/svg" viewBox="0 0 323 268.47"><defs><style>.cls-1{fill:#f1f1f2;}.cls-2{fill:#eca571;}.cls-3{fill:#a5d4d4;}.cls-4{fill:#8ec9cd;}</style></defs><g id="Layer_2" data-name="Layer 2"><g id="Layer_1-2" data-name="Layer 1"><rect class="cls-1" x="39.61" y="81.79" width="247.86" height="160.45"/><path class="cls-2" d="M242.15,48.16,171,2.36a14.93,14.93,0,0,0-16.12,0L83.79,48.16a8.47,8.47,0,0,0-3.91,7.11V83.68a8.58,8.58,0,0,0,8.66,8.5H237.4a8.58,8.58,0,0,0,8.67-8.5V55.27A8.46,8.46,0,0,0,242.15,48.16Z"/><rect class="cls-3" x="79.23" y="81.13" width="166.84" height="42.53"/><rect class="cls-3" x="38.08" y="130.32" width="16.04" height="111.93"/><rect class="cls-3" x="59.04" y="130.32" width="16.04" height="111.93"/><rect class="cls-3" x="250.47" y="130.32" width="16.04" height="111.93"/><rect class="cls-3" x="271.42" y="130.32" width="16.04" height="111.93"/><path class="cls-4" d="M76,75.92H42.07a15.15,15.15,0,0,0-15.29,15v24.38a15.15,15.15,0,0,0,15.29,15H76a15.15,15.15,0,0,0,15.29-15V90.93A15.15,15.15,0,0,0,76,75.92Z"/><path class="cls-4" d="M285.94,75.92H252a15.15,15.15,0,0,0-15.29,15v24.38a15.15,15.15,0,0,0,15.29,15h33.95a15.15,15.15,0,0,0,15.29-15V90.93A15.15,15.15,0,0,0,285.94,75.92Z"/><rect class="cls-4" y="242.25" width="323" height="26.23" rx="2.06"/></g></g></svg>