<svg xmlns="http://www.w3.org/2000/svg" viewBox="0 0 159.06 387.98"><defs><style>.cls-1{fill:#ebcc85;}.cls-2{fill:#f1f1f2;}.cls-3{fill:#fff;}.cls-4{fill:#e6e7e8;}</style></defs><g id="Layer_2" data-name="Layer 2"><g id="Layer_1-2" data-name="Layer 1"><rect class="cls-1" x="75.29" width="8.49" height="43.86" rx="4.25"/><path class="cls-2" d="M113.71,218.7,98,53.24A16.43,16.43,0,0,0,81.6,38.36H77.47A16.44,16.44,0,0,0,61.1,53.24L45.35,218.7a16.45,16.45,0,0,0,16.37,18H97.35A16.44,16.44,0,0,0,113.71,218.7Z"/><rect class="cls-1" x="46.15" y="228.78" width="66.77" height="92.53" rx="8.35"/><path class="cls-1" d="M111.89,334.07H47.18c-4.62,0-8.35,2.34-8.35,5.23v10h0v10c0,2.89,3.73,5.24,8.35,5.24h64.71c4.61,0,8.35-2.35,8.35-5.24v-10h0v-10C120.24,336.41,116.5,334.07,111.89,334.07Z"/><path class="cls-3" d="M112.42,218.71H46.64c-6.62,0-11.19,7.63-8.85,14.76l3.31,10.09c1.39,4.24,4.92,7.05,8.85,7.05h59.16c3.94,0,7.46-2.81,8.86-7.05l3.31-10.09C123.62,226.34,119,218.71,112.42,218.71Z"/><path class="cls-4" d="M153.07,372.27h-4.95a6,6,0,0,1-6-6,6,6,0,0,0-6-6H22.93a6,6,0,0,0-6,6,6,6,0,0,1-6,6H6a6,6,0,0,0-6,6V382a6,6,0,0,0,6,6H153.07a6,6,0,0,0,6-6v-3.73A6,6,0,0,0,153.07,372.27Z"/><rect class="cls-1" x="51.71" y="50.73" width="55.64" height="20.29" rx="10.15"/><rect class="cls-2" x="58.63" y="264.12" width="41.8" height="40.49" rx="7.17"/><path class="cls-3" d="M121.28,328.94,118,322.58c-1.4-2.68-4.92-4.45-8.86-4.45H50c-3.93,0-7.46,1.77-8.85,4.45l-3.31,6.36c-2.34,4.5,2.23,9.32,8.85,9.32h65.78C119,338.26,123.62,333.44,121.28,328.94Z"/></g></g></svg>