<svg width="197" height="215" viewBox="0 0 197 215" fill="none" xmlns="http://www.w3.org/2000/svg">
<g clip-path="url(#clip0)">
<path d="M76.6772 155.232L78.3606 192.992L89.669 194.986L93.031 158.116L76.6772 155.232Z" fill="#6CD2CC"/>
<path d="M96.0754 158.652L93.4963 195.661L104.718 197.639L114.256 161.858L96.0754 158.652Z" fill="#48C8BD"/>
<path d="M73.3828 195.789L78.4476 193.007L89.5821 194.97L89.9105 198.703L73.3828 195.789Z" fill="#6CD2CC"/>
<path d="M88.4317 198.442L93.4964 195.661L104.631 197.624L104.959 201.356L88.4317 198.442Z" fill="#48C8BD"/>
<path d="M53.8518 117.329C53.8518 117.329 56.135 121.675 62.6856 126.236L60.9537 136.058C60.6778 137.623 61.7527 139.157 63.3185 139.433L64.3624 139.617L70.5385 140.706L71.6693 140.905C73.2351 141.181 74.7698 140.107 75.0457 138.543L76.0726 132.719C76.1596 132.734 76.2466 132.75 76.3182 132.852L75.3067 138.589C75.0308 140.153 76.1057 141.687 77.6715 141.963L78.8893 142.178L84.8915 143.237L86.1093 143.451C87.6751 143.727 89.2098 142.654 89.4857 141.089L90.5279 135.178C102.828 135.107 110.62 129.579 110.62 129.579C110.62 129.579 122.979 159.184 77.3977 151.146C31.816 143.109 53.8518 117.329 53.8518 117.329Z" fill="#32A597"/>
<path d="M86.1962 143.467L84.9784 143.252C86.5441 143.528 88.0789 142.454 88.3547 140.89L89.3663 135.153C89.8166 135.142 90.2668 135.132 90.6148 135.194L89.5726 141.104C89.2967 142.669 87.762 143.743 86.1962 143.467Z" fill="#E6E7E8"/>
<path d="M76.6115 138.819C76.3357 140.384 77.4106 141.918 78.9764 142.194L77.7585 141.979C76.1928 141.703 75.1178 140.169 75.3937 138.604L76.4053 132.867C76.8249 133.031 77.2598 133.108 77.5925 133.256L76.6115 138.819Z" fill="white"/>
<path d="M76.6115 138.819L77.5924 133.256C77.8534 133.302 78.186 133.45 78.4469 133.496C82.3718 134.636 85.9689 135.091 89.3664 135.153L88.3549 140.89C88.079 142.454 86.5443 143.528 84.9785 143.252L78.9763 142.193C77.4105 141.917 76.3356 140.383 76.6115 138.819Z" fill="white"/>
<path d="M71.6694 140.905L70.6256 140.721C72.1914 140.997 73.7261 139.923 74.002 138.359L75.0442 132.448C75.3768 132.596 75.7248 132.658 76.0574 132.806L75.0305 138.63C74.7699 140.107 73.2352 141.181 71.6694 140.905Z" fill="#E6E7E8"/>
<path d="M61.9975 136.242C61.7216 137.807 62.7965 139.341 64.3623 139.617L63.3184 139.433C61.7527 139.157 60.6777 137.623 60.9536 136.058L62.6855 126.236C63.0028 126.471 63.3201 126.706 63.6528 126.855L61.9975 136.242Z" fill="white"/>
<path d="M61.9975 136.242L63.6375 126.941C66.6108 128.9 70.3107 130.807 74.957 132.433L73.9148 138.343C73.639 139.908 72.1042 140.982 70.5384 140.706L64.3623 139.617C62.7965 139.341 61.7216 137.807 61.9975 136.242Z" fill="white"/>
<path d="M46.3053 119.942C49.2629 120.463 51.4119 120.484 51.9492 120.489L51.9029 100.405L51.9899 100.42C51.9029 100.405 44.7752 100.134 41.3305 95.7624C38.1725 91.7998 38.846 84.9278 39.9959 79.9324C41.2225 74.5023 37.8594 69.1592 32.4251 67.9321C27.0472 66.8942 21.7012 70.2536 20.4746 75.6836C17.4441 89.3099 19.1867 100.283 25.8048 108.53C31.993 116.164 40.5641 118.93 46.3053 119.942Z" fill="#48C8BD"/>
<path d="M142.636 114.342C148.29 115.339 157.377 115.687 165.818 110.543C174.771 105.041 180.249 95.3418 182.061 81.5008C182.766 75.9787 178.891 70.9935 173.365 70.288C167.839 69.5824 162.851 73.453 162.146 78.9751C161.503 84.1496 159.801 90.7505 155.376 93.4656C150.659 96.3085 144.043 94.156 143.956 94.1406C138.731 92.2335 132.97 94.8924 131.063 100.113C129.156 105.333 131.818 111.091 137.043 112.998C137.652 113.105 139.678 113.821 142.636 114.342Z" fill="#48C8BD"/>
<path d="M23.6454 126.881C48.6984 132.822 46.6861 108.627 58.5521 110.002C70.505 111.393 72.816 123.72 79.913 124.165C87.0099 124.61 96.2323 113.509 111.455 116.194C126.678 118.878 130.908 152.874 147.686 150.814C156.205 149.806 162.792 139.406 167.241 129.436L171.998 142.643C179.801 164.005 161.52 185.787 139.077 181.83L46.5223 165.51C27.9222 162.14 17.9908 143.181 23.6454 126.881Z" fill="#48C8BD"/>
<path d="M28.9899 117.427L97.7975 35.4535L110.969 19.7614C115.976 13.7433 125.719 15.4612 128.366 22.8291L135.561 42.5603L167.241 129.436C162.777 139.493 156.205 149.806 147.686 150.814C130.822 152.859 126.678 118.878 111.455 116.194C96.2324 113.509 87.0099 124.61 79.913 124.165C72.816 123.72 70.5051 111.393 58.5521 110.002C46.6861 108.627 48.6114 132.806 23.6455 126.881C24.7651 123.583 26.5091 120.305 28.9899 117.427Z" fill="#6CD2CC"/>
<path d="M57.361 114.721C57.361 114.721 59.6442 119.067 66.1948 123.628L64.4629 133.45C64.187 135.015 65.262 136.549 66.8277 136.825L67.8716 137.009L74.0477 138.098L75.0916 138.282C76.6574 138.558 78.1921 137.485 78.468 135.92L79.4948 130.096C79.5818 130.111 79.6688 130.127 79.7405 130.229L78.7289 135.966C78.453 137.531 79.528 139.064 81.0937 139.341L82.3116 139.555L88.3137 140.614L89.5316 140.828C91.0973 141.104 92.6321 140.031 92.9079 138.466L93.9501 132.555C106.251 132.484 114.042 126.956 114.042 126.956C114.042 126.956 126.315 156.545 80.7329 148.508C35.1513 140.471 57.361 114.721 57.361 114.721Z" fill="#32A597"/>
<path d="M89.7209 140.772L88.503 140.557C90.0688 140.834 91.6035 139.76 91.8794 138.195L92.891 132.458C93.3412 132.448 93.7915 132.438 94.1395 132.499L93.0972 138.41C92.8214 139.975 91.2866 141.048 89.7209 140.772Z" fill="#E6E7E8"/>
<path d="M80.136 136.124C79.8601 137.689 80.935 139.223 82.5008 139.499L81.2829 139.284C79.7172 139.008 78.6422 137.474 78.9181 135.91L79.9297 130.173C80.3493 130.336 80.7842 130.413 81.1169 130.561L80.136 136.124Z" fill="white"/>
<path d="M80.1361 136.125L81.1171 130.562C81.378 130.608 81.7106 130.756 81.9716 130.802C85.8964 131.942 89.4936 132.397 92.8911 132.458L91.8795 138.195C91.6036 139.76 90.0689 140.834 88.5031 140.557L82.501 139.499C80.9352 139.223 79.8603 137.689 80.1361 136.125Z" fill="white"/>
<path d="M75.1939 138.211L74.15 138.026C75.7158 138.303 77.2505 137.229 77.5264 135.664L78.5686 129.753C78.9012 129.902 79.2492 129.963 79.5818 130.111L78.5549 135.935C78.2943 137.413 76.7596 138.487 75.1939 138.211Z" fill="#E6E7E8"/>
<path d="M65.5221 133.548C65.2463 135.112 66.3212 136.646 67.887 136.922L66.8431 136.738C65.2773 136.462 64.2024 134.928 64.4783 133.363L66.2102 123.541C66.5275 123.776 66.8448 124.012 67.1774 124.16L65.5221 133.548Z" fill="white"/>
<path d="M65.5222 133.548L67.1621 124.247C70.1354 126.205 73.8353 128.112 78.4817 129.738L77.4395 135.649C77.1636 137.214 75.6289 138.287 74.0631 138.011L67.887 136.922C66.3212 136.646 65.2463 135.112 65.5222 133.548Z" fill="white"/>
<path d="M95.7997 141.396L96.8435 141.58C95.2777 141.304 94.2028 139.77 94.4787 138.205L95.5209 132.295C95.1576 132.32 94.8097 132.259 94.4464 132.284L93.4195 138.108C93.159 139.586 94.2339 141.12 95.7997 141.396Z" fill="#E6E7E8"/>
<path d="M106.396 140.307L108.036 131.006C104.572 131.829 100.443 132.356 95.5209 132.294L94.4787 138.205C94.2028 139.77 95.2777 141.304 96.8435 141.58L103.02 142.669C104.672 142.96 106.12 141.871 106.396 140.307Z" fill="white"/>
<path d="M85.6223 101.959C85.1319 104.741 86.9797 107.486 89.8503 107.993C92.7209 108.499 95.3811 106.638 95.8869 103.769C96.3774 100.988 94.5295 98.2419 91.6589 97.7358C88.7883 97.2296 86.1128 99.1777 85.6223 101.959Z" fill="#32A597"/>
<path d="M94.4382 100.287C94.4382 100.287 93.4801 95.5472 93.8839 94.274C93.8993 94.1871 92.14 97.5515 94.4382 100.287Z" fill="#32A597"/>
<path d="M92.1506 99.5251C92.1506 99.5251 91.1925 94.7853 91.5964 93.5122C91.5964 93.5122 89.8371 96.8766 92.1506 99.5251Z" fill="#32A597"/>
<path d="M89.7866 99.198C89.7866 99.198 88.8285 94.4582 89.2324 93.185C89.2324 93.185 87.4731 96.5495 89.7866 99.198Z" fill="#32A597"/>
<path d="M72.4871 99.643C71.9966 102.425 73.8445 105.17 76.7151 105.676C79.4987 106.167 82.2459 104.321 82.7516 101.453C83.2421 98.6715 81.3942 95.9258 78.5236 95.4196C75.653 94.9134 72.9775 96.8615 72.4871 99.643Z" fill="#32A597"/>
<path d="M81.3897 97.9861C81.3897 97.9861 80.4316 93.2463 80.8355 91.9731C80.8508 91.8862 79.0046 95.2353 81.3897 97.9861Z" fill="#32A597"/>
<path d="M79.1024 97.2245C79.1024 97.2245 78.1443 92.4847 78.5482 91.2116C78.5482 91.2116 76.702 94.5606 79.1024 97.2245Z" fill="#32A597"/>
<path d="M76.7384 96.8974C76.7384 96.8974 75.7803 92.1576 76.1842 90.8844C76.1842 90.8844 74.3379 94.2335 76.7384 96.8974Z" fill="#32A597"/>
</g>
<defs>
<clipPath id="clip0">
<rect width="165" height="188" fill="white" transform="translate(33.5686 0.915283) rotate(10)"/>
</clipPath>
</defs>
</svg>
