<svg width="24" height="25" viewBox="0 0 24 25" fill="none" xmlns="http://www.w3.org/2000/svg">
<path d="M20 4.00159H4C2.897 4.00159 2 4.89859 2 6.00159V18.0016C2 19.1046 2.897 20.0016 4 20.0016H20C21.103 20.0016 22 19.1046 22 18.0016V6.00159C22 4.89859 21.103 4.00159 20 4.00159ZM20 6.00159V6.51259L12 12.7356L4 6.51359V6.00159H20ZM4 18.0016V9.04559L11.386 14.7906C11.566 14.9316 11.783 15.0016 12 15.0016C12.217 15.0016 12.434 14.9316 12.614 14.7906L20 9.04559L20.002 18.0016H4Z" fill="white"/>
</svg>
