<svg width="40" height="41" viewBox="0 0 40 41" fill="none" xmlns="http://www.w3.org/2000/svg">
<g clip-path="url(#clip0)">
<path d="M20 3.60343C25.3402 3.60343 25.9727 3.62376 28.0816 3.71998C30.0316 3.80897 31.0906 4.13479 31.7954 4.40861C32.7289 4.77142 33.3952 5.20489 34.095 5.90471C34.7949 6.60454 35.2283 7.27086 35.5911 8.20433C35.865 8.90915 36.1908 9.96814 36.2798 11.918C36.376 14.027 36.3963 14.6595 36.3963 19.9998C36.3963 25.3401 36.376 25.9726 36.2798 28.0815C36.1908 30.0315 35.865 31.0904 35.5911 31.7953C35.2283 32.7287 34.7949 33.3951 34.095 34.0949C33.3952 34.7947 32.7289 35.2282 31.7954 35.5909C31.0906 35.8648 30.0316 36.1906 28.0816 36.2796C25.973 36.3758 25.3405 36.3962 20 36.3962C14.6594 36.3962 14.0269 36.3758 11.9183 36.2796C9.9683 36.1906 8.90932 35.8648 8.20457 35.5909C7.27102 35.2282 6.6047 34.7947 5.90488 34.0949C5.20506 33.3951 4.77158 32.7287 4.40885 31.7953C4.13496 31.0904 3.80914 30.0315 3.72014 28.0816C3.62392 25.9726 3.6036 25.3401 3.6036 19.9998C3.6036 14.6595 3.62392 14.027 3.72014 11.9181C3.80914 9.96814 4.13496 8.90915 4.40885 8.20433C4.77158 7.27086 5.20506 6.60454 5.90488 5.90471C6.6047 5.20489 7.27102 4.77142 8.20457 4.40861C8.90932 4.13479 9.9683 3.80897 11.9182 3.71998C14.0272 3.62376 14.6597 3.60343 20 3.60343ZM20 -0.000244141C14.5682 -0.000244141 13.8872 0.022779 11.754 0.120111C9.62518 0.217285 8.17139 0.555328 6.89916 1.04977C5.58398 1.56088 4.46863 2.24475 3.35677 3.35661C2.24491 4.46847 1.56105 5.58382 1.04993 6.899C0.555493 8.17122 0.21745 9.62501 0.120276 11.7539C0.0229437 13.887 0 14.5681 0 19.9998C0 25.4315 0.0229437 26.1126 0.120276 28.2457C0.21745 30.3746 0.555493 31.8284 1.04993 33.1006C1.56105 34.4157 2.24491 35.5311 3.35677 36.643C4.46863 37.7548 5.58398 38.4387 6.89916 38.9498C8.17139 39.4443 9.62518 39.7823 11.754 39.8795C13.8872 39.9768 14.5682 39.9998 20 39.9998C25.4317 39.9998 26.1128 39.9768 28.2459 39.8795C30.3747 39.7823 31.8285 39.4443 33.1008 38.9498C34.4159 38.4387 35.5313 37.7548 36.6431 36.643C37.755 35.5311 38.4389 34.4158 38.95 33.1006C39.4444 31.8284 39.7825 30.3746 39.8796 28.2457C39.977 26.1126 40 25.4315 40 19.9998C40 14.5681 39.977 13.887 39.8796 11.7539C39.7825 9.62501 39.4444 8.17122 38.95 6.899C38.4389 5.58382 37.755 4.46847 36.6431 3.35661C35.5313 2.24475 34.4159 1.56088 33.1008 1.04977C31.8285 0.555328 30.3747 0.217285 28.2459 0.120111C26.1128 0.022779 25.4317 -0.000244141 20 -0.000244141ZM20 9.72949C14.3279 9.72949 9.72966 14.3277 9.72966 19.9998C9.72966 25.6719 14.3279 30.2701 20 30.2701C25.6721 30.2701 30.2703 25.6719 30.2703 19.9998C30.2703 14.3277 25.6721 9.72949 20 9.72949ZM20 26.6665C16.3181 26.6665 13.3333 23.6817 13.3333 19.9998C13.3333 16.3179 16.3181 13.3331 20 13.3331C23.6818 13.3331 26.6667 16.3179 26.6667 19.9998C26.6667 23.6817 23.6818 26.6665 20 26.6665ZM33.076 9.32373C33.076 10.6492 32.0015 11.7238 30.676 11.7238C29.3505 11.7238 28.276 10.6492 28.276 9.32373C28.276 7.99823 29.3505 6.92377 30.676 6.92377C32.0015 6.92377 33.076 7.99823 33.076 9.32373Z" fill="white"/>
</g>
<defs>
<clipPath id="clip0">
<rect width="40" height="40" fill="white" transform="translate(0 -0.000244141)"/>
</clipPath>
</defs>
</svg>
