<svg width="24" height="25" viewBox="0 0 24 25" fill="none" xmlns="http://www.w3.org/2000/svg">
<path d="M17.7073 12.2946C17.3163 11.9036 16.6843 11.9036 16.2933 12.2946L14.6993 13.8886C13.9603 13.6686 12.5813 13.1686 11.7073 12.2946C10.8333 11.4206 10.3333 10.0416 10.1133 9.30259L11.7073 7.70859C12.0983 7.31759 12.0983 6.68559 11.7073 6.29459L7.70733 2.29459C7.31633 1.90359 6.68433 1.90359 6.29333 2.29459L3.58133 5.00659C3.20133 5.38659 2.98733 5.90859 2.99533 6.44159C3.01833 7.86559 3.39533 12.8116 7.29333 16.7096C11.1913 20.6076 16.1373 20.9836 17.5623 21.0076C17.5673 21.0076 17.5853 21.0076 17.5903 21.0076C18.1183 21.0076 18.6173 20.7996 18.9953 20.4216L21.7073 17.7096C22.0983 17.3186 22.0983 16.6866 21.7073 16.2956L17.7073 12.2946ZM17.5803 19.0066C16.3323 18.9856 12.0623 18.6506 8.70733 15.2946C5.34133 11.9286 5.01533 7.64359 4.99533 6.42059L7.00033 4.41559L9.58633 7.00159L8.29333 8.29459C8.05433 8.53259 7.95233 8.87659 8.02133 9.20659C8.04533 9.32159 8.63233 12.0486 10.2923 13.7086C11.9523 15.3686 14.6793 15.9556 14.7943 15.9796C15.1273 16.0506 15.4683 15.9476 15.7063 15.7086L17.0003 14.4156L19.5863 17.0016L17.5803 19.0066Z" fill="white"/>
</svg>
