<svg width="40" height="41" viewBox="0 0 40 41" fill="none" xmlns="http://www.w3.org/2000/svg">
<g clip-path="url(#clip0)">
<path d="M3.96468 11.163H12.0549C12.302 8.42332 13.0649 5.96293 14.1608 4.06124C15.6112 1.54714 17.6741 0 20.0055 0C22.337 0 24.3891 1.55788 25.8503 4.06124C26.9462 5.95219 27.709 8.42332 27.9561 11.163H36.0356C36.9918 11.163 37.8513 11.9474 37.7761 12.9036L36.1538 35.5412C35.9496 38.3777 34.1661 40 31.5768 40H8.4342C5.5548 40 4.02915 37.9909 3.85724 35.5412L2.22415 12.9143C2.15969 11.9581 3.00847 11.163 3.96468 11.163ZM14.0748 11.163H25.9147C25.6784 8.78861 25.023 6.68278 24.0882 5.07118C23.0138 3.19098 21.5527 2.01988 20.0055 2.01988C18.4476 2.01988 16.9972 3.19097 15.9013 5.08192C14.9666 6.68278 14.3219 8.79936 14.0748 11.163Z" fill="#EA501F"/>
<path d="M14.1289 32.0602C13.7529 31.8023 13.6562 31.2973 13.914 30.9213C14.1719 30.5453 14.6768 30.4486 15.0529 30.7064C15.2893 30.8676 15.5364 31.0287 15.805 31.1899C17.6959 32.3395 19.4365 32.9089 20.8869 32.9089C22.1977 32.9089 23.2613 32.4147 23.9382 31.4155C23.9812 31.3403 24.0242 31.2973 24.0349 31.2651C24.2283 30.9535 24.368 30.6205 24.4647 30.2981C24.658 29.632 24.6258 28.9444 24.3572 28.3212C24.0671 27.6659 23.5084 27.032 22.6382 26.5055C22.058 26.151 21.3381 25.8394 20.4679 25.603C18.2546 24.9799 16.6215 24.0988 15.7405 22.917C14.7735 21.617 14.6983 20.0484 15.7298 18.1467C16.4174 16.8896 17.8248 16.1053 19.6084 15.9656C21.1448 15.8474 22.9927 16.2127 24.8729 17.169C25.2812 17.3731 25.4424 17.8673 25.2275 18.2756C25.0126 18.6839 24.5291 18.845 24.1208 18.6301C22.52 17.8136 20.9943 17.502 19.7265 17.5987C18.5125 17.6954 17.5885 18.1682 17.1802 18.9202C16.4926 20.1773 16.5033 21.1657 17.062 21.9178C17.7067 22.7881 19.0497 23.465 20.9191 23.9914C21.9291 24.2815 22.7886 24.6468 23.4977 25.0766C24.6688 25.7857 25.4531 26.6774 25.8721 27.6444C26.3019 28.6436 26.3556 29.6965 26.0655 30.7279C25.9366 31.1899 25.7325 31.6519 25.4531 32.1031C25.3886 32.1998 25.3457 32.275 25.3134 32.3288C24.3142 33.8007 22.7778 34.5313 20.9084 34.542C19.1571 34.542 17.1157 33.8974 14.9669 32.5866C14.6983 32.4362 14.419 32.2643 14.1289 32.0602Z" fill="white"/>
</g>
<defs>
<clipPath id="clip0">
<rect width="40" height="40" fill="white"/>
</clipPath>
</defs>
</svg>
