<svg width="40" height="41" viewBox="0 0 40 41" fill="none" xmlns="http://www.w3.org/2000/svg">
<g clip-path="url(#clip0)">
<path fill-rule="evenodd" clip-rule="evenodd" d="M12.0549 11.163H3.96468C3.00847 11.163 2.15969 11.958 2.22415 12.9143L3.85724 35.5412C4.02915 37.9908 5.5548 39.9999 8.4342 39.9999H31.5768C34.1661 39.9999 35.9496 38.3776 36.1538 35.5412L37.7761 12.9035C37.8513 11.9473 36.9918 11.163 36.0356 11.163H27.9561C27.709 8.42325 26.9462 5.95213 25.8503 4.06118C24.3891 1.55782 22.337 -6.10352e-05 20.0055 -6.10352e-05C17.6741 -6.10352e-05 15.6112 1.54708 14.1608 4.06118C13.0649 5.96287 12.302 8.42325 12.0549 11.163ZM25.9147 11.163H14.0748C14.3219 8.79929 14.9666 6.68272 15.9013 5.08186C16.9972 3.19091 18.4476 2.01982 20.0055 2.01982C21.5527 2.01982 23.0138 3.19091 24.0882 5.07112C25.023 6.68272 25.6784 8.78855 25.9147 11.163ZM13.914 30.9212C13.6562 31.2973 13.7529 31.8022 14.1289 32.0601C14.419 32.2642 14.6983 32.4361 14.9669 32.5866C17.1157 33.8973 19.1571 34.542 20.9084 34.542C22.7778 34.5312 24.3142 33.8006 25.3134 32.3287C25.3194 32.3187 25.3258 32.308 25.3326 32.2965C25.3624 32.2463 25.4006 32.1818 25.4531 32.1031C25.7325 31.6518 25.9366 31.1898 26.0655 30.7278C26.3556 29.6964 26.3019 28.6435 25.8721 27.6443C25.4531 26.6773 24.6688 25.7856 23.4977 25.0765C22.7886 24.6467 21.9291 24.2814 20.9191 23.9913C19.0497 23.4649 17.7067 22.788 17.062 21.9178C16.5033 21.1657 16.4926 20.1772 17.1802 18.9202C17.5885 18.1681 18.5125 17.6954 19.7265 17.5987C20.9943 17.502 22.52 17.8135 24.1208 18.6301C24.5291 18.845 25.0126 18.6838 25.2275 18.2755C25.4424 17.8673 25.2812 17.373 24.8729 17.1689C22.9927 16.2127 21.1448 15.8474 19.6084 15.9656C17.8248 16.1052 16.4174 16.8896 15.7298 18.1466C14.6983 20.0483 14.7735 21.6169 15.7405 22.9169C16.6215 24.0988 18.2546 24.9798 20.4679 25.6029C21.3381 25.8393 22.058 26.1509 22.6382 26.5054C23.5084 27.0319 24.0671 27.6658 24.3572 28.3212C24.6258 28.9443 24.658 29.632 24.4647 30.2981C24.368 30.6204 24.2283 30.9535 24.0349 31.265C24.0294 31.2816 24.0154 31.3009 23.9973 31.326C23.9801 31.3498 23.9592 31.3788 23.9382 31.4155C23.2613 32.4147 22.1977 32.9089 20.8869 32.9089C19.4365 32.9089 17.6959 32.3394 15.805 31.1898C15.5364 31.0287 15.2893 30.8675 15.0529 30.7064C14.6768 30.4485 14.1719 30.5452 13.914 30.9212Z" fill="white"/>
</g>
<defs>
<clipPath id="clip0">
<rect width="40" height="40" fill="white"/>
</clipPath>
</defs>
</svg>
