<svg width="40" height="41" viewBox="0 0 40 41" fill="none" xmlns="http://www.w3.org/2000/svg">
<g clip-path="url(#clip0)">
<path fill-rule="evenodd" clip-rule="evenodd" d="M20.0073 9.24367C21.888 8.30422 24.1691 7.79158 26.2563 7.61089L28.6022 7.40619C31.172 7.18529 33.743 7.32095 36.3158 7.32095H37.7265V8.73162C37.7265 14.995 37.7265 21.2602 37.7265 27.5247V28.2451C37.7265 34.712 32.4386 39.9999 25.9699 39.9999H2.27246V7.32095H3.68253C6.25775 7.32095 8.81977 7.15167 11.3944 7.35157L13.7397 7.52865C15.968 7.69613 18.0077 8.23699 20.0073 9.24367Z" fill="#4D4C4B"/>
<path fill-rule="evenodd" clip-rule="evenodd" d="M3.68262 8.73165V24.8307V27.5248V28.2451V38.5898H14.0255H15.6517H25.97C31.6607 38.5898 36.3159 33.9334 36.3159 28.2451V27.5248C36.3159 21.2968 36.3159 15.2213 36.3159 8.73165C33.8434 8.73165 31.2321 8.67102 28.7247 8.81269L26.3782 9.01498C24.0821 9.29412 21.759 9.83017 19.999 10.8459C18.0991 9.74793 16.0269 9.20227 13.6335 8.93394L11.2876 8.75566C8.72922 8.6368 6.10657 8.73165 3.68262 8.73165Z" fill="#5FB74E"/>
<path fill-rule="evenodd" clip-rule="evenodd" d="M6.6084 38.5898H14.0255H15.6517H25.97C28.4912 38.5898 30.8071 37.6756 32.6055 36.1647C30.5052 31.2819 25.65 27.8651 19.9984 27.8651C13.4498 27.8651 7.97405 32.4525 6.6084 38.5898Z" fill="#89C45F"/>
<path fill-rule="evenodd" clip-rule="evenodd" d="M19.999 38.5898L26.0907 38.4998C28.5783 38.4998 30.8426 37.6228 32.6062 36.1653C34.8771 34.2888 36.316 31.447 36.316 28.2451V27.5248C36.316 21.2968 36.316 15.2213 36.316 8.73165C33.8434 8.73165 31.2321 8.67102 28.7248 8.81268L26.3782 9.01498C24.0822 9.29411 21.7591 9.83017 19.999 10.8458V38.5898Z" fill="#4A9E4B"/>
<path fill-rule="evenodd" clip-rule="evenodd" d="M19.999 38.5898H26.0079C28.5291 38.5898 30.8078 37.6762 32.6062 36.1652C30.5286 31.3377 25.5703 27.9419 19.999 27.8675V38.5898Z" fill="#5FB74E"/>
<path fill-rule="evenodd" clip-rule="evenodd" d="M28.7252 7.8354C28.2768 3.43111 24.555 -0.00012207 20.0366 -0.00012207C15.5201 -0.00012207 11.8001 3.40169 11.2881 7.78017L13.634 7.95906C14.0488 4.79676 16.7441 2.3518 20.0276 2.3518C23.3094 2.3518 26.0287 4.83878 26.3787 8.0371L28.7252 7.8354Z" fill="#4D4C4B"/>
<path fill-rule="evenodd" clip-rule="evenodd" d="M23.8142 29.2416C22.7919 30.3227 21.7708 31.4044 20.7491 32.4867L19.9976 33.2833L19.2472 32.4867C18.2249 31.4062 17.2039 30.3227 16.1822 29.2416L15.6533 28.6803L16.0399 28.0128C16.8593 26.5997 18.3924 25.8392 19.9976 25.8392C21.6046 25.8392 23.1365 26.5997 23.9565 28.0128L24.3437 28.6803L23.8142 29.2416Z" fill="#4D4C4B"/>
<path fill-rule="evenodd" clip-rule="evenodd" d="M23.0629 28.5327C22.0436 29.6144 21.0201 30.6949 19.999 31.7778C18.9779 30.6949 17.9563 29.6144 16.9346 28.5327C17.5799 27.4203 18.7912 26.8705 19.999 26.8729C21.2074 26.8705 22.4188 27.4203 23.0629 28.5327Z" fill="#FDF8B4"/>
<path fill-rule="evenodd" clip-rule="evenodd" d="M23.0619 28.5327C22.0426 29.6144 21.0191 30.6949 19.998 31.7778V26.8729C21.2064 26.8705 22.4178 27.4203 23.0619 28.5327Z" fill="#FCD066"/>
<path fill-rule="evenodd" clip-rule="evenodd" d="M12.3424 12.801C16.9196 12.801 20.6318 16.5155 20.6318 21.0909C20.6318 25.6681 16.9196 29.3808 12.3424 29.3808C7.76467 29.3808 4.05371 25.6681 4.05371 21.0909C4.05371 16.5155 7.76467 12.801 12.3424 12.801Z" fill="#4D4C4B"/>
<path fill-rule="evenodd" clip-rule="evenodd" d="M12.3412 14.2116C16.1404 14.2116 19.221 17.2923 19.221 21.0909C19.221 24.8889 16.1404 27.9701 12.3412 27.9701C8.54078 27.9701 5.46191 24.8889 5.46191 21.0909C5.46191 17.2923 8.54078 14.2116 12.3412 14.2116Z" fill="#EEEFEE"/>
<path fill-rule="evenodd" clip-rule="evenodd" d="M12.3416 14.2116C15.4768 14.2116 18.1229 16.3102 18.9519 19.179C18.1229 22.0465 15.4768 24.1457 12.3416 24.1457C9.20507 24.1457 6.56142 22.0465 5.73242 19.179C6.56142 16.3102 9.20507 14.2116 12.3416 14.2116Z" fill="#FEFEFE"/>
<path fill-rule="evenodd" clip-rule="evenodd" d="M27.6562 12.801C32.2345 12.801 35.9449 16.5155 35.9449 21.0909C35.9449 25.6681 32.2345 29.3808 27.6562 29.3808C23.0784 29.3808 19.3662 25.6699 19.3662 21.0909C19.3662 16.5155 23.0784 12.801 27.6562 12.801Z" fill="#4D4C4B"/>
<path fill-rule="evenodd" clip-rule="evenodd" d="M27.6556 14.2116C31.4542 14.2116 34.5355 17.2923 34.5355 21.0909C34.5355 24.8889 31.4542 27.9701 27.6556 27.9701C23.8564 27.9701 20.7764 24.8889 20.7764 21.0909C20.7764 17.2923 23.8564 14.2116 27.6556 14.2116Z" fill="#EEEFEE"/>
<path fill-rule="evenodd" clip-rule="evenodd" d="M27.6553 14.2116C30.79 14.2116 33.436 16.3102 34.2638 19.179C33.4366 22.0465 30.79 24.1457 27.6553 24.1457C24.5188 24.1457 21.8739 22.0465 21.0449 19.179C21.8739 16.3102 24.5188 14.2116 27.6553 14.2116Z" fill="#FEFEFE"/>
<path fill-rule="evenodd" clip-rule="evenodd" d="M13.2066 16.8126C15.66 16.8126 17.6505 18.802 17.6505 21.2529C17.6505 23.7081 15.66 25.6968 13.2066 25.6968C10.7514 25.6968 8.7627 23.7081 8.7627 21.2529C8.7627 20.4353 8.9854 19.6694 9.37199 19.0103C9.68894 19.7948 10.4561 20.3453 11.3559 20.3453C12.5373 20.3453 13.4965 19.3896 13.4965 18.2077C13.4965 17.6752 13.3021 17.1902 12.9827 16.8174C13.0565 16.8126 13.1322 16.8126 13.2066 16.8126Z" fill="#4D4C4B"/>
<path fill-rule="evenodd" clip-rule="evenodd" d="M26.7898 16.8126C29.2455 16.8126 31.2349 18.802 31.2349 21.2529C31.2349 23.7081 29.2455 25.6968 26.7898 25.6968C24.337 25.6968 22.3477 23.7081 22.3477 21.2529C22.3477 20.4353 22.5692 19.6694 22.9545 19.0103C23.2733 19.7948 24.0423 20.3453 24.9409 20.3453C26.1223 20.3453 27.0797 19.3896 27.0797 18.2077C27.0797 17.6752 26.8876 17.1902 26.5671 16.8174C26.6421 16.8126 26.7153 16.8126 26.7898 16.8126Z" fill="#4D4C4B"/>
</g>
<defs>
<clipPath id="clip0">
<rect width="40" height="40" fill="white" transform="translate(0 -0.00012207)"/>
</clipPath>
</defs>
</svg>
