<svg width="112" height="24" viewBox="0 0 112 24" fill="none" xmlns="http://www.w3.org/2000/svg">
<g clip-path="url(#clip0)">
<path d="M93.0784 5.7158H95.7075V18.4638H95.5279C94.8782 18.4638 94.2552 18.2057 93.7958 17.7464C93.3365 17.287 93.0784 16.664 93.0784 16.0144V5.7158ZM70.9 18.6843C69.2102 19.0382 67.449 18.7469 65.963 17.8678C65.2062 17.4577 64.5382 16.9016 63.9977 16.2317C63.4572 15.5618 63.0549 14.7914 62.8141 13.965C61.75 10.4813 63.9327 6.60032 67.4409 5.65865C68.2728 5.42489 69.1432 5.36033 70.0005 5.46878C70.8579 5.57723 71.6848 5.8565 72.4323 6.29006C75.0641 7.76245 76.0221 10.0377 75.8561 12.9689L65.2418 12.9471C65.3247 13.5227 65.5441 14.07 65.8816 14.5435C66.2192 15.017 66.6652 15.4028 67.1823 15.6687C68.2383 16.2593 69.2099 16.4008 70.1108 16.1205C71.1123 15.8075 71.9234 14.991 72.5847 14.2154L74.7565 15.7857C73.8748 17.3724 72.6664 18.3059 70.9 18.6843ZM72.9086 10.5657C72.7926 10.1168 72.5794 9.69884 72.284 9.34142C71.9887 8.984 71.6184 8.69583 71.1994 8.49728C68.9187 7.22357 66.6761 8.30677 65.631 10.5575L72.9086 10.5657ZM108.924 11.3114C108.939 10.8334 108.84 10.3586 108.635 9.92679C108.429 9.49494 108.123 9.11862 107.742 8.82932C106.974 8.24934 106.029 7.95143 105.067 7.98562C102.686 7.98562 101.156 9.8472 101.156 12.1415C101.156 14.3515 102.775 16.1967 105.043 16.1967C106.616 16.1967 107.459 15.2741 108.358 14.1283V17.435C107.89 17.808 107.38 18.1224 106.836 18.3713C106.191 18.6205 105.503 18.7398 104.811 18.7224C101.023 18.7224 98.5216 15.5871 98.5216 11.9755C98.5216 10.1139 99.1013 8.57621 100.266 7.37598C101.502 6.10499 103.118 5.47086 105.102 5.47086C108.864 5.47086 111.553 7.62909 111.553 11.5292V18.4638H111.368C110.718 18.4638 110.095 18.2057 109.636 17.7464C109.176 17.287 108.918 16.664 108.918 16.0144L108.924 11.3114ZM95.5551 4.20803C95.4068 4.36224 95.2268 4.48247 95.0276 4.56047C94.8284 4.63846 94.6147 4.67235 94.4011 4.65982C94.195 4.66554 93.99 4.62893 93.7986 4.55227C93.6072 4.47561 93.4336 4.36052 93.2885 4.21411C93.1433 4.0677 93.0298 3.89308 92.9548 3.70104C92.8798 3.50901 92.845 3.30363 92.8525 3.09761C92.8427 2.89214 92.8761 2.6869 92.9506 2.49515C93.0251 2.30341 93.139 2.12943 93.285 1.98449C93.4309 1.83955 93.6057 1.72686 93.798 1.65373C93.9902 1.58059 94.1957 1.54863 94.4011 1.55991C94.6051 1.55434 94.808 1.59023 94.9977 1.6654C95.1874 1.74056 95.3598 1.85344 95.5046 1.99721C95.6494 2.14097 95.7635 2.31262 95.84 2.50177C95.9165 2.69092 95.9538 2.89362 95.9497 3.09761C95.9628 3.50426 95.8219 3.90087 95.5551 4.20803ZM88.1278 16.7791C86.9194 18.0773 85.3654 18.7224 83.4793 18.7224C81.4925 18.7224 79.8705 18.0365 78.6376 16.6594C77.4782 15.3566 76.8994 13.73 76.9012 11.7795C76.9012 8.33671 79.5602 5.45997 83.0547 5.45997C84.35 5.4402 85.6276 5.76218 86.7588 6.39348V9.25389C85.809 8.61159 84.6197 7.99923 83.4439 7.99923C80.9945 7.99923 79.533 9.68662 79.533 12.0816C79.533 14.4766 81.0761 16.213 83.4929 16.213C84.0105 16.2247 84.5241 16.1194 84.9953 15.905C85.4665 15.6906 85.8833 15.3726 86.2145 14.9747C86.933 14.1582 87.3032 12.9471 87.3032 11.3278V2.44987C87.3032 1.80024 87.5612 1.17721 88.0206 0.717853C88.4799 0.258493 89.103 0.000427246 89.7526 0.000427246L89.935 0.000427246V11.7278C89.9295 13.7935 89.3335 15.4836 88.1278 16.7791ZM59.638 16.8744C59.081 17.4651 58.4078 17.9342 57.6608 18.2523C56.9137 18.5703 56.109 18.7303 55.2971 18.7224C54.0004 18.7504 52.7216 18.4168 51.6038 17.7589V14.9393C52.551 15.5816 53.743 16.1967 54.9188 16.1967C57.3682 16.1967 58.8297 14.5093 58.8297 12.1143C58.8297 9.71928 57.3192 7.9829 54.8671 7.9829C54.3606 7.96801 53.8573 8.0666 53.3939 8.27145C52.9305 8.4763 52.5188 8.78222 52.189 9.1668C51.446 10.0214 51.0622 11.2434 51.0622 12.86V23.9995H50.8772C50.2275 23.9995 49.6045 23.7415 49.1452 23.2821C48.6858 22.8228 48.4277 22.1997 48.4277 21.5501V12.4463C48.4277 8.57893 50.7928 5.45997 54.8534 5.45997C56.8565 5.45997 58.4868 6.14581 59.7224 7.52295C60.8818 8.80936 61.4606 10.436 61.4588 12.4028C61.4735 13.2325 61.3198 14.0566 61.0068 14.8252C60.6939 15.5938 60.2282 16.291 59.638 16.8744Z" fill="white"/>
<path d="M17.2305 9.12597C16.8741 8.75046 16.4422 8.4547 15.9633 8.25815C15.4843 8.06159 14.9692 7.96871 14.4517 7.98562C12.0322 7.98562 10.5816 9.75194 10.5816 12.0898C10.5816 14.4277 12.0676 16.1967 14.4517 16.1967C16.8359 16.1967 18.3246 14.3977 18.3246 12.0898C18.3483 11.5479 18.2637 11.0066 18.0759 10.4978C17.888 9.98887 17.6006 9.52253 17.2305 9.12597ZM43.113 9.12597C42.7566 8.75046 42.3247 8.4547 41.8457 8.25815C41.3668 8.06159 40.8516 7.96871 40.3342 7.98562C37.9147 7.98562 36.4641 9.75194 36.4641 12.0898C36.4641 14.4277 37.9473 16.1967 40.3342 16.1967C42.721 16.1967 44.2043 14.3977 44.2043 12.0898C44.2272 11.5482 44.1425 11.0074 43.9552 10.4987C43.7678 9.98999 43.4816 9.52344 43.113 9.12597ZM45.0181 16.8526C43.7614 18.0525 42.0907 18.722 40.3533 18.722C38.6158 18.722 36.9451 18.0525 35.6884 16.8526C35.047 16.2401 34.5415 15.4995 34.2049 14.679C33.8682 13.8585 33.7079 12.9763 33.7343 12.0898C33.738 10.7865 34.1252 9.51322 34.8478 8.42857C35.5703 7.34393 36.5961 6.49596 37.7973 5.99041C38.9985 5.48485 40.3219 5.34407 41.6026 5.58563C42.8833 5.82718 44.0645 6.44038 44.999 7.34876C45.6414 7.95779 46.1485 8.69509 46.4875 9.5128C46.8265 10.3305 46.9898 11.2104 46.9668 12.0952C46.9924 12.9809 46.8317 13.862 46.4951 14.6815C46.1584 15.501 45.6534 16.2407 45.0126 16.8526H45.0181ZM31.4291 8.78577C31.1546 9.26437 30.8558 9.72856 30.5337 10.1765C30.3383 10.4433 30.1076 10.6822 29.8479 10.8869C31.674 11.4774 32.3572 12.743 32.3572 14.6318V18.4638H32.1721C31.5225 18.4638 30.8994 18.2057 30.4401 17.7464C29.9807 17.287 29.7227 16.664 29.7227 16.0144V14.8985C29.7227 13.6765 29.1783 12.8464 27.8801 12.8464H25.4933V18.4638H25.3109C24.6613 18.4638 24.0383 18.2057 23.5789 17.7464C23.1196 17.287 22.8615 16.664 22.8615 16.0144V2.44987C22.8615 1.80024 23.1196 1.17721 23.5789 0.717853C24.0383 0.258493 24.6613 0.000427246 25.3109 0.000427246L25.496 0.000427246V10.2935H26.2717C27.1262 10.2935 27.6896 10.0023 28.0108 9.44984L30.2098 5.7158H33.2036L31.4291 8.78577ZM19.1302 16.8526C18.513 17.4585 17.7816 17.9357 16.9785 18.2567C16.1754 18.5777 15.3165 18.736 14.4517 18.7224C13.5907 18.7353 12.7357 18.5766 11.9367 18.2556C11.1377 17.9345 10.4105 17.4576 9.79778 16.8526C9.15557 16.2406 8.64943 15.5001 8.31228 14.6795C7.97514 13.8589 7.81454 12.9766 7.84095 12.0898C7.82439 11.2162 7.98393 10.3482 8.31005 9.53765C8.63616 8.72705 9.12219 7.99043 9.73912 7.37172C10.3561 6.753 11.0913 6.26486 11.9009 5.93641C12.7106 5.60796 13.5781 5.44593 14.4517 5.45997C15.3157 5.44978 16.173 5.61152 16.9739 5.93579C17.7747 6.26005 18.5031 6.74036 19.1166 7.34876C19.7589 7.95779 20.2661 8.69509 20.6051 9.5128C20.9441 10.3305 21.1073 11.2104 21.0843 12.0952C21.1099 12.9809 20.9492 13.862 20.6126 14.6815C20.276 15.501 19.7709 16.2407 19.1302 16.8526ZM3.85107 18.4638C1.27643 18.4638 0 16.7111 0 14.2671V4.99457C0 4.34494 0.258066 3.72191 0.717426 3.26255C1.17679 2.80319 1.79981 2.54513 2.44945 2.54513H2.63451V5.7158H7.07618V8.24689H2.63179V14.561C2.63179 15.6333 3.1108 15.9218 4.13684 15.9218H7.07618V18.4502L3.85107 18.4638Z" fill="white"/>
</g>
<defs>
<clipPath id="clip0">
<rect width="111.556" height="23.9991" fill="white" transform="translate(0 0.000427246)"/>
</clipPath>
</defs>
</svg>
