<svg width="40" height="41" viewBox="0 0 40 41" fill="none" xmlns="http://www.w3.org/2000/svg">
<path d="M12.5792 36.2524C27.68 36.2524 35.9296 23.75 35.9296 12.902C35.9296 12.5468 35.9296 12.1932 35.9056 11.8412C37.512 10.6785 38.8985 9.23895 40 7.59C38.5023 8.254 36.9134 8.68925 35.2864 8.8812C36.9991 7.85646 38.2812 6.24451 38.8944 4.3452C37.2832 5.30053 35.5209 5.97418 33.6832 6.3372C32.4456 5.02004 30.8081 4.14782 29.0245 3.8557C27.2409 3.56357 25.4107 3.86785 23.8176 4.72137C22.2244 5.5749 20.9573 6.93003 20.2124 8.57678C19.4676 10.2235 19.2866 12.07 19.6976 13.83C16.4342 13.6653 13.2419 12.8162 10.3281 11.3376C7.41417 9.859 4.84386 7.7841 2.784 5.2476C1.73455 7.05425 1.41312 9.19297 1.88517 11.2283C2.35721 13.2636 3.58724 15.0425 5.3248 16.2028C4.01887 16.1635 2.74146 15.8113 1.6 15.1756V15.2796C1.60082 17.1743 2.25683 19.0104 3.45681 20.4766C4.6568 21.9428 6.32691 22.9489 8.184 23.3244C6.9758 23.654 5.70812 23.7021 4.4784 23.4652C5.00302 25.0957 6.02405 26.5216 7.39873 27.5434C8.77342 28.5653 10.433 29.132 12.1456 29.1644C9.23909 31.4474 5.64953 32.6871 1.9536 32.6844C1.30066 32.6826 0.648378 32.643 0 32.566C3.75306 34.9744 8.11987 36.2519 12.5792 36.246" fill="white"/>
</svg>
